<?xml version="1.0" encoding="UTF-8" standalone="no"?>
<!-- Created with Inkscape (http://www.inkscape.org/) -->

<svg
   xmlns:dc="http://purl.org/dc/elements/1.1/"
   xmlns:cc="http://creativecommons.org/ns#"
   xmlns:rdf="http://www.w3.org/1999/02/22-rdf-syntax-ns#"
   xmlns:svg="http://www.w3.org/2000/svg"
   xmlns="http://www.w3.org/2000/svg"
   xmlns:sodipodi="http://sodipodi.sourceforge.net/DTD/sodipodi-0.dtd"
   xmlns:inkscape="http://www.inkscape.org/namespaces/inkscape"
   width="32px"
   height="32px"
   id="svg3056"
   version="1.1"
   inkscape:version="0.48.3.1 r9886"
   sodipodi:docname="favicon-kaleessi-pink-black.svg">
  <defs
     id="defs3058" />
  <sodipodi:namedview
     id="base"
     pagecolor="#ffffff"
     bordercolor="#666666"
     borderopacity="1.0"
     inkscape:pageopacity="0.0"
     inkscape:pageshadow="2"
     inkscape:zoom="22.395604"
     inkscape:cx="16"
     inkscape:cy="16"
     inkscape:current-layer="layer1"
     showgrid="true"
     inkscape:grid-bbox="true"
     inkscape:document-units="px"
     inkscape:window-width="1920"
     inkscape:window-height="1021"
     inkscape:window-x="0"
     inkscape:window-y="27"
     inkscape:window-maximized="1" />
  <metadata
     id="metadata3061">
    <rdf:RDF>
      <cc:Work
         rdf:about="">
        <dc:format>image/svg+xml</dc:format>
        <dc:type
           rdf:resource="http://purl.org/dc/dcmitype/StillImage" />
        <dc:title></dc:title>
      </cc:Work>
    </rdf:RDF>
  </metadata>
  <g
     id="layer1"
     inkscape:label="Layer 1"
     inkscape:groupmode="layer">
    <path
       style="fill:#e61b72"
       inkscape:connector-curvature="0"
       d="m 31.976449,16.014733 c 0,8.831142 -7.148969,15.989666 -15.969047,15.989666 -8.8193988,0 -15.96864996,-7.158524 -15.96864996,-15.989666 0,-8.8311509 7.14925116,-15.98968284 15.96864996,-15.98968284 8.81994,0 15.969047,7.15853194 15.969047,15.98968284 z"
       id="path3"
       inkscape:export-filename="/home/zido/git/kaleessi/site/www/images/kaleessi/source/favicon-kaleessi-pink-black.png"
       inkscape:export-xdpi="90"
       inkscape:export-ydpi="90" />
    <g
       transform="matrix(0.13775572,0,0,0.13793715,-14.142227,-24.780473)"
       id="g21"
       inkscape:export-filename="/home/zido/git/kaleessi/site/www/images/kaleessi/source/favicon-kaleessi-pink-black.png"
       inkscape:export-xdpi="90"
       inkscape:export-ydpi="90">
      <path
         style="fill:#1d1d1b"
         inkscape:connector-curvature="0"
         d="m 289.017,386.419 c -4.886,0 -9.374,-1.29 -13.459,-3.87 -5.4,-3.996 -8.1,-7.909 -8.1,-11.74 l 3.833,0.25 c 3.863,6.912 9.336,10.741 16.415,11.49 3.356,0 6.638,-1.582 9.85,-4.745 0.711,0.105 1.3,0.274 1.835,0.472 0.818,-0.813 1.611,-1.653 2.406,-2.492 -3.151,-1.555 -7.182,-3.376 -12.12,-5.475 0,-0.75 0.017,-1.723 0.054,-2.932 0.034,-1.209 0.166,-2.018 0.382,-2.436 5.807,0.739 11.299,2.576 16.486,5.484 1.768,-2.107 3.453,-4.283 5.069,-6.518 -1.474,-1.758 -2.922,-3.483 -4.318,-5.15 -9.522,-11.364 -19.152,-21.688 -28.892,-30.971 -9.741,-9.28 -20.597,-16.876 -32.563,-22.789 -11.969,-5.91 -24.915,-8.865 -38.852,-8.865 -2.843,0 -4.96,0.083 -6.347,0.25 -1.459,0.333 -2.882,0.499 -4.268,0.499 l -1.532,-111.265 -11.039,0.073 c -3.971,1.226 -7.846,2.668 -11.621,4.295 h 18.173 c 1.019,3.417 1.53,8.703 1.53,15.861 -0.656,3.081 -1.221,5.954 -1.695,8.617 -0.477,2.665 -1.04,5.141 -1.696,7.429 -0.656,2.292 -1.532,4.349 -2.625,6.181 h -0.221 c -2.405,-1.746 -3.756,-3.246 -4.047,-4.495 2.407,-7.242 3.611,-13.57 3.611,-18.982 0,-2.828 -0.292,-5.118 -0.876,-6.866 -4.088,-0.831 -10.362,-1.249 -18.825,-1.249 h -6.105 c -2.411,1.417 -4.77,2.916 -7.067,4.5 0.896,2.478 2.649,5.219 5.294,8.237 3.281,3.748 5.143,6.038 5.579,6.871 -0.436,0.916 -0.839,1.768 -1.202,2.558 -0.367,0.794 -0.915,1.23 -1.641,1.312 -2.408,-1.417 -4.322,-2.642 -5.749,-3.686 -1.418,-1.035 -2.991,-2.39 -4.704,-4.057 -1.716,-1.664 -3.048,-3.453 -3.994,-5.37 -0.124,-0.283 -0.23,-0.542 -0.346,-0.817 -2.265,1.818 -4.455,3.72 -6.575,5.7 l -0.161,168.766 c 2.836,2.659 5.8,5.18 8.891,7.547 1.119,-4.12 2.556,-7.461 4.319,-9.99 l 3.611,1.998 c 0.438,0.749 0.658,1.334 0.658,1.752 -1.584,3.318 -2.688,6.671 -3.344,10.047 2.581,1.754 5.248,3.386 7.97,4.933 0.285,-3.404 1.057,-6.473 2.378,-9.176 1.603,-3.285 3.992,-6.932 7.166,-10.923 3.173,-4 5.307,-6.872 6.404,-8.618 -0.22,-0.83 -0.73,-1.54 -1.533,-2.125 l -9.192,2.875 c -0.436,-0.251 -0.97,-0.542 -1.586,-0.875 -0.623,-0.334 -1.134,-0.751 -1.531,-1.251 -0.406,-0.494 -0.714,-1.079 -0.931,-1.745 0.363,-1.167 0.728,-1.749 1.092,-1.749 6.275,-4.079 11.673,-6.121 16.198,-6.121 1.387,0 2.626,0.251 3.721,0.75 0.658,1.748 0.985,3.706 0.985,5.869 0,3.414 -0.749,6.474 -2.241,9.18 -1.498,2.707 -3.907,6.18 -7.225,10.427 -3.323,4.243 -5.489,7.326 -6.512,9.239 -0.437,0.749 -0.655,1.792 -0.655,3.125 0,1 0.218,1.498 0.655,1.498 1.46,0 3.12,-0.331 4.981,-1 1.86,-0.665 3.119,-1.081 3.775,-1.247 1.97,1.083 2.955,2.454 2.955,4.121 -2.323,1.622 -4.741,2.794 -7.243,3.546 2.711,1.155 5.489,2.188 8.301,3.14 1.396,-0.358 2.694,-0.797 3.865,-1.317 -0.146,0 -0.073,-0.623 0.22,-1.874 -0.729,-5.494 -4.233,-10.448 -10.505,-14.862 2.187,-2.497 3.83,-3.744 4.923,-3.744 1.167,0.334 2.206,0.982 3.122,1.937 0.908,0.958 2.24,2.52 3.992,4.683 3.284,5.243 4.924,10.948 4.924,17.104 0,0.329 -0.038,0.712 -0.056,1.066 1.578,0.373 3.167,0.718 4.772,1.021 l 0.208,-108.23 c 1.165,-0.829 2.518,-1.251 4.048,-1.251 2.409,0 5.181,1.042 8.319,3.122 7.223,7.326 17.017,19.715 29.382,37.15 12.368,17.443 21.818,30.243 28.349,38.401 3.977,4.969 8.745,9.734 14.277,14.305 3.31,-2.149 6.507,-4.455 9.571,-6.919 -0.522,0.03 -0.975,0.064 -1.355,0.106 z M 189.969,245.057 c 1.754,4.83 2.628,9.949 2.628,15.358 0,4.248 -0.51,8.476 -1.531,12.677 -1.023,4.207 -2.446,7.889 -4.27,11.05 -0.292,0.335 -0.584,0.501 -0.874,0.501 -0.657,0 -1.351,-0.624 -2.079,-1.872 -0.731,-1.248 -1.095,-2.248 -1.095,-2.998 0.802,-2.416 1.588,-4.85 2.351,-7.306 0.769,-2.455 1.26,-5.057 1.479,-7.806 0,-6.91 -1.443,-13.256 -4.323,-19.043 -2.882,-5.785 -6.805,-11.634 -11.766,-17.546 0.511,-0.498 1.131,-1.122 1.862,-1.871 0.729,-0.751 1.533,-1.207 2.408,-1.375 8.026,7.244 13.097,13.987 15.21,20.231 z m -26.482,48.327 c 0.584,0.334 1.02,0.499 1.313,0.499 0.874,0 2.261,-0.562 4.158,-1.686 1.898,-1.125 2.99,-1.684 3.284,-1.684 1.968,0.664 2.954,1.29 2.954,1.873 0,0.333 -0.109,0.857 -0.328,1.561 -0.218,0.708 -0.327,1.104 -0.327,1.188 -3.503,2.915 -7.844,4.368 -13.024,4.368 h -0.876 c -0.585,-0.167 -0.988,-0.478 -1.204,-0.938 -0.219,-0.453 -0.512,-1.287 -0.875,-2.497 -0.366,-1.205 -0.585,-1.934 -0.657,-2.185 0,-5.161 1.093,-9.573 3.282,-13.236 2.192,-3.662 5.729,-8.617 10.618,-14.861 1.822,-3.994 2.737,-6.908 2.737,-8.739 0,-1.418 -0.331,-2.54 -0.986,-3.374 -0.146,-0.499 -0.73,-0.75 -1.75,-0.75 l -5.802,4.124 -4.267,-6.119 c 4.523,-3.58 9.885,-5.371 16.087,-5.371 1.605,2.249 2.59,4.871 2.955,7.866 0,4.746 -0.802,8.515 -2.407,11.304 -1.605,2.791 -4.378,6.513 -8.319,11.176 -0.364,0.835 -1.625,3.122 -3.773,6.869 -2.153,3.747 -3.229,6.574 -3.229,8.492 -0.002,0.747 0.142,1.455 0.436,2.12 z m -2.683,-65.185 c 1.207,-2.749 3.156,-6.14 5.855,-10.177 2.7,-4.037 4.196,-6.307 4.488,-6.805 0,-3.416 -0.439,-5.372 -1.314,-5.872 l -7.66,3.622 c -1.826,-1.332 -3.323,-3.036 -4.487,-5.122 5.76,-2.579 10.249,-3.87 13.46,-3.87 1.752,0 3.393,0.25 4.923,0.75 0.729,0.833 1.094,1.873 1.094,3.12 0,2.999 -0.4,5.538 -1.203,7.619 -0.802,2.081 -2.263,4.806 -4.378,8.178 -2.115,3.373 -3.648,5.914 -4.596,7.619 -0.947,1.709 -1.823,4.058 -2.626,7.056 0,2.498 0.402,3.746 1.204,3.746 0.583,0 1.496,-0.331 2.737,-0.998 1.239,-0.667 2.115,-1 2.626,-1 0.29,0 0.583,0.167 0.875,0.5 0.583,0.666 0.875,1.708 0.875,3.123 -3.721,2.832 -7.367,4.244 -10.943,4.244 -0.802,-0.33 -1.312,-0.623 -1.532,-0.873 -0.22,-0.248 -0.475,-0.875 -0.767,-1.872 -0.292,-2 -0.439,-3.374 -0.439,-4.122 0.002,-3.164 0.605,-6.121 1.808,-8.866 z m -13.186,-12.863 c 1.677,0 3.463,1.542 5.363,4.621 -1.461,4.745 -2.227,7.743 -2.301,8.991 0,5.243 0.768,10.075 2.301,14.486 1.53,4.412 3.5,8.349 5.91,11.801 2.407,3.458 5.289,6.973 8.645,10.551 l -4.487,4.996 c -0.074,0.083 -0.165,0.188 -0.275,0.311 -0.11,0.128 -0.236,0.232 -0.382,0.314 -4.89,-3.996 -8.683,-8.368 -11.381,-13.114 -4.524,-7.99 -6.785,-16.856 -6.785,-26.595 -0.001,-6.329 1.129,-11.781 3.392,-16.362 z m -4.488,71.93 c 0,-3.913 0.655,-7.992 1.971,-12.24 1.313,-4.244 2.954,-7.697 4.925,-10.364 1.021,0.417 1.876,1.167 2.573,2.25 0.691,1.08 1.038,2.289 1.038,3.622 -2.263,3.579 -3.466,6.824 -3.611,9.74 0,14.067 3.756,24.642 11.272,31.719 0.583,1 1.677,2.31 3.284,3.933 1.602,1.623 2.588,3.059 2.955,4.31 -0.658,0.749 -1.078,1.374 -1.258,1.874 -0.183,0.497 -0.347,0.789 -0.491,0.875 -0.15,0.08 -0.622,0.247 -1.425,0.494 -6.274,-5.908 -11.038,-11.005 -14.28,-15.293 -3.249,-4.289 -5.347,-9.222 -6.295,-14.8 -0.439,-1.83 -0.658,-3.872 -0.658,-6.12 z m 23.53,87.915 c -0.585,1.247 -1.495,2.79 -2.736,4.622 h -0.875 c -3.356,-1.501 -6.42,-4.065 -9.195,-7.682 -2.773,-3.623 -5.141,-7.64 -7.111,-12.052 -1.532,-4.33 -2.298,-9.199 -2.298,-14.609 0,-9.992 2.552,-18.734 7.661,-26.229 2.479,0.503 4.048,1.752 4.706,3.752 -3.065,3.913 -5.109,9.736 -6.131,17.48 0,7.661 1.44,14.218 4.327,19.67 2.877,5.451 6.763,10.47 11.652,15.048 z m 11.163,-26.85 c -2.993,2.251 -5.856,4.041 -8.589,5.368 -2.739,1.335 -5.676,1.999 -8.81,1.999 -0.513,-0.163 -0.86,-0.752 -1.039,-1.748 -0.186,-0.999 -0.313,-1.578 -0.387,-1.749 0,-6.494 1.097,-12.257 3.284,-17.294 2.189,-5.037 5.364,-9.928 9.522,-14.673 1.97,-3.33 2.955,-6.159 2.955,-8.494 0,-0.999 -0.256,-1.748 -0.767,-2.246 -0.729,0 -1.934,0.456 -3.612,1.376 -1.678,0.916 -2.775,1.37 -3.282,1.37 -0.586,0 -1.096,-0.248 -1.534,-0.75 -0.509,-0.162 -0.765,-0.996 -0.765,-2.494 2.479,-1.831 4.595,-3.267 6.348,-4.308 1.752,-1.042 3.682,-1.563 5.8,-1.563 0.437,0.248 0.784,0.708 1.04,1.373 0.254,0.665 0.601,1.458 1.038,2.372 0.586,1.92 0.876,3.958 0.876,6.122 0,2.995 -0.639,5.765 -1.915,8.301 -1.279,2.544 -3.009,5.31 -5.199,8.306 -2.188,3 -3.94,5.682 -5.252,8.055 -1.313,2.37 -1.971,4.891 -1.971,7.553 0,1.583 0.366,2.376 1.095,2.376 1.022,0 2.826,-0.628 5.418,-1.875 2.587,-1.25 4.213,-1.915 4.87,-1.996 0.875,0.996 1.314,2.125 1.314,3.372 0.001,0.498 -0.146,0.916 -0.438,1.247 z m 13.023,38.338 c -0.729,0.666 -1.387,0.996 -1.971,0.996 -1.458,-2.163 -2.28,-3.535 -2.46,-4.117 -0.186,-0.584 -0.273,-1.748 -0.273,-3.5 1.166,-3.658 1.75,-7.822 1.75,-12.486 0,-11.988 -4.379,-23.688 -13.133,-35.089 0.656,-0.832 1.274,-1.645 1.862,-2.438 0.581,-0.787 1.275,-1.185 2.079,-1.185 1.313,0.996 2.917,2.791 4.813,5.37 1.898,2.584 3.541,4.663 4.927,6.244 3.72,7.825 5.58,16.567 5.58,26.223 0,6.745 -1.06,13.405 -3.174,19.982 z m 1.971,-51.078 c -1.461,0 -2.428,-0.099 -2.902,-0.311 -0.476,-0.206 -0.82,-0.561 -1.04,-1.061 -0.219,-0.5 -0.766,-1.83 -1.641,-3.997 0.583,-2.329 0.875,-5.164 0.875,-8.49 0,-2.916 -0.328,-6.163 -0.983,-9.74 -0.658,-3.582 -1.569,-6.972 -2.737,-10.18 -1.168,-3.205 -2.7,-6.324 -4.597,-9.365 -1.897,-3.036 -3.978,-5.64 -6.238,-7.805 -0.51,-0.582 -1.077,-1.185 -1.695,-1.811 -0.621,-0.624 -0.931,-1.391 -0.931,-2.308 0.364,-0.416 0.747,-0.876 1.149,-1.375 0.4,-0.497 0.822,-0.937 1.259,-1.312 0.438,-0.373 0.91,-0.561 1.422,-0.561 l 4.706,5.37 c 4.305,5.163 7.916,11.346 10.834,18.547 2.917,7.201 4.378,14.377 4.378,21.536 0.001,4.997 -0.619,9.287 -1.859,12.863 z m 92.15,42.213 c -1.24,0 -2.259,-0.879 -3.063,-2.623 l -0.329,-19.23 h 2.736 l 1.313,21.227 c -0.365,0.417 -0.583,0.626 -0.657,0.626 z m 0.822,-31.469 c 3.395,0.665 6.733,1.915 10.015,3.744 6.201,5.163 9.558,10.364 10.067,15.611 -1.093,0 -2.445,-0.439 -4.047,-1.313 -1.607,-0.875 -2.592,-1.599 -2.956,-2.187 -1.827,-3.746 -3.758,-6.325 -5.801,-7.741 -2.042,-1.415 -5.309,-2.537 -9.794,-3.37 -4.489,-0.833 -8.483,-1.745 -11.983,-2.748 0,-2.081 0.291,-3.457 0.875,-4.121 5.69,0.749 10.232,1.458 13.624,2.125 z m -16.033,-21.98 c 7.878,5.327 11.819,10.948 11.819,16.858 -0.437,0.497 -0.875,0.749 -1.313,0.749 -0.366,0 -0.876,-0.252 -1.532,-0.749 -3.137,-7.744 -8.356,-12.446 -15.652,-14.113 -1.53,0.084 -2.863,0.544 -3.997,1.376 -1.131,0.833 -2.278,2.038 -3.444,3.618 -1.169,1.587 -2.008,2.667 -2.518,3.247 -1.095,0 -2.042,-0.455 -2.846,-1.371 0,-1.665 0.383,-3.143 1.147,-4.434 0.769,-1.29 2.244,-3.391 4.435,-6.307 1.752,-1 3.759,-1.498 6.021,-1.498 2.917,0.001 5.544,0.874 7.88,2.624 z m -1.75,32.716 c -0.073,0.084 -0.165,0.168 -0.273,0.251 -0.112,0.084 -0.203,0.167 -0.276,0.247 l -3.064,-1.871 -2.518,-24.472 c 0.877,-0.503 1.641,-0.754 2.297,-0.754 0.804,0 1.607,0.669 2.41,2 l 1.424,24.599 z m -40.827,-38.088 c -5.399,-8.155 -9.374,-13.649 -11.929,-16.485 1.313,-0.996 3.355,-1.498 6.13,-1.498 3.721,0 8.352,1.167 13.895,3.498 5.546,2.334 10.583,4.896 15.107,7.682 4.523,2.791 7.077,4.683 7.659,5.683 l -4.923,2.372 c -2.921,-2.084 -5.089,-3.561 -6.513,-4.435 -1.42,-0.873 -3.339,-1.434 -5.746,-1.687 -0.805,-0.58 -1.644,-0.873 -2.518,-0.873 -1.093,0 -2.009,0.5 -2.736,1.5 -0.73,0.996 -1.095,2.122 -1.095,3.369 0,4.746 3.266,9.807 9.798,15.175 6.528,5.37 11.509,8.427 14.939,9.176 0,0.666 -0.167,1.563 -0.491,2.688 -0.332,1.121 -0.859,1.769 -1.588,1.936 -6.056,-1.747 -11.22,-4.828 -15.487,-9.241 -4.271,-4.411 -9.102,-10.7 -14.502,-18.86 z m 19.482,28.1 c 0.292,-0.334 0.655,-0.501 1.095,-0.501 0.51,0 1.184,0.125 2.026,0.372 0.836,0.255 1.22,0.373 1.147,0.373 1.677,3.669 3.941,6.498 6.786,8.498 2.847,1.996 5.71,3.434 8.594,4.309 2.882,0.875 6.877,1.894 11.985,3.059 -0.076,0.831 -0.166,1.685 -0.275,2.557 -0.109,0.878 -0.385,1.646 -0.821,2.313 h -6.784 c -10.51,-1.831 -18.427,-8.825 -23.753,-20.98 z"
         id="path23" />
      <path
         style="fill:#1d1d1b"
         inkscape:connector-curvature="0"
         d="m 247.644,234.006 c -3.137,5.455 -7.679,13.423 -13.625,23.912 -5.949,10.49 -10.998,18.651 -15.155,24.478 3.792,1.332 7.693,1.997 11.708,1.997 5.18,0 9.885,-1.372 14.12,-4.119 4.232,-2.75 7.88,-5.995 10.946,-9.74 3.063,-3.748 7.698,-9.784 13.901,-18.106 2.99,-4.164 5.746,-8.785 8.262,-13.863 2.519,-5.078 4.963,-10.427 7.331,-16.045 2.047,-4.854 4.241,-10.001 6.558,-15.41 -0.631,-0.524 -1.285,-1.02 -1.929,-1.53 -1.161,3.083 -2.83,6.398 -5.009,9.946 -3.502,5.704 -6.935,8.554 -10.288,8.554 v -2.374 c 0.365,-0.582 1.168,-1.225 2.407,-1.936 1.239,-0.705 2.08,-1.311 2.517,-1.808 2.625,-3 4.523,-5.788 5.688,-8.369 0.838,-1.849 1.364,-3.989 1.602,-6.4 -1.401,-1.036 -2.823,-2.047 -4.271,-3.02 -4.097,1.915 -6.978,4.137 -8.599,6.673 -0.368,0 -0.767,0.105 -1.205,0.311 -0.438,0.211 -0.803,0.315 -1.095,0.315 -0.583,0 -0.947,-0.208 -1.092,-0.626 2.168,-3.572 5.014,-6.53 8.494,-8.917 -0.723,-0.45 -1.455,-0.891 -2.191,-1.324 -0.17,0.13 -0.333,0.243 -0.504,0.376 -6.421,6.16 -12.006,12.508 -16.747,19.042 -4.745,6.538 -8.686,12.532 -11.824,17.983 z m -2.295,8.303 c 0.583,-1.25 1.604,-3.164 3.063,-5.744 6.275,-7.157 12.112,-10.738 17.515,-10.738 0.437,0.249 0.656,0.666 0.656,1.249 0,0.415 -0.219,0.748 -0.656,0.996 -4.015,0.585 -7.664,2.417 -10.948,5.498 -3.283,3.078 -5.983,6.993 -8.101,11.736 -0.363,0.085 -0.749,0.191 -1.148,0.313 -0.402,0.127 -0.82,0.27 -1.259,0.437 0,-1.246 0.292,-2.498 0.878,-3.747 z m 15.213,-4.495 -0.219,13.114 c -0.438,0.166 -1.35,0.249 -2.735,0.249 l -0.221,-14.611 c 0.293,-0.333 0.767,-0.5 1.425,-0.5 0.948,0 1.53,0.581 1.75,1.748 z m -13.626,35.404 c -5.805,3.706 -12.026,5.558 -18.663,5.558 0.072,-2.665 0.563,-5.078 1.476,-7.247 0.911,-2.161 2.281,-5.035 4.106,-8.614 6.493,-11.24 13.39,-17.733 20.688,-19.48 0.727,0.249 1.095,0.707 1.095,1.375 0,0.415 -0.368,0.915 -1.095,1.497 -4.815,3.83 -8.594,7.304 -11.329,10.427 -2.738,3.121 -4.799,7.138 -6.184,12.049 0.143,1.083 0.874,1.959 2.187,2.624 2.773,-0.25 6.475,-1.976 11.11,-5.182 4.634,-3.203 7.462,-4.809 8.485,-4.809 -2.118,4.165 -6.076,8.099 -11.876,11.802 z m 18.991,-20.791 c -1.901,3.911 -6.313,5.866 -13.248,5.866 -1.166,-0.499 -2.061,-0.893 -2.679,-1.187 -0.622,-0.29 -1.15,-0.81 -1.588,-1.56 0.22,-1.082 0.474,-1.622 0.767,-1.622 0.729,0 1.603,0.081 2.626,0.249 1.021,0.168 1.859,0.251 2.517,0.251 6.276,0 10.838,-4.165 13.685,-12.489 0.509,-0.081 0.965,-0.146 1.366,-0.187 0.401,-0.042 0.822,-0.061 1.263,-0.061 -0.37,3.414 -1.938,6.991 -4.709,10.74 z m 11.272,-24.853 c 0.071,-0.252 0.165,-0.438 0.272,-0.561 0.112,-0.128 0.238,-0.23 0.384,-0.312 0.146,-0.084 0.364,-0.208 0.658,-0.375 1.021,0 1.53,0.417 1.53,1.248 -1.021,3.58 -2.844,6.37 -5.471,8.366 -2.626,1.998 -6.094,3.748 -10.399,5.248 -0.289,0 -0.474,-0.146 -0.546,-0.437 -0.074,-0.29 -0.11,-1.269 -0.11,-2.937 3.431,-1.082 6.276,-2.373 8.539,-3.87 2.26,-1.5 3.974,-3.623 5.143,-6.37 z m -8.537,4.124 V 217.96 c 0.071,0 0.384,-0.146 0.928,-0.438 0.551,-0.291 0.896,-0.439 1.044,-0.439 0.437,0 0.655,0.292 0.655,0.876 l -0.219,13.235 c -0.584,0.335 -1.387,0.504 -2.408,0.504 z m -2.079,-19.733 c 1.604,-0.999 3.464,-1.498 5.582,-1.498 2.626,0 4.596,0.583 5.911,1.747 0.438,0.582 0.656,1.208 0.656,1.873 -0.366,0.667 -0.876,1 -1.532,1 -0.367,0 -1.203,-0.251 -2.519,-0.75 -1.313,-0.499 -2.445,-0.748 -3.39,-0.748 -2.044,0 -4.124,1.082 -6.239,3.246 -1.094,1.333 -2.226,3.579 -3.395,6.743 -0.655,1 -1.387,1.5 -2.188,1.5 -0.729,0 -1.094,-0.5 -1.094,-1.5 1.676,-5.411 4.414,-9.283 8.208,-11.613 z"
         id="path25" />
    </g>
  </g>
</svg>
