<?xml version="1.0" encoding="UTF-8" standalone="no"?>
<!-- Generator: Adobe Illustrator 16.0.0, SVG Export Plug-In . SVG Version: 6.00 Build 0)  -->

<svg
   xmlns:dc="http://purl.org/dc/elements/1.1/"
   xmlns:cc="http://creativecommons.org/ns#"
   xmlns:rdf="http://www.w3.org/1999/02/22-rdf-syntax-ns#"
   xmlns:svg="http://www.w3.org/2000/svg"
   xmlns="http://www.w3.org/2000/svg"
   xmlns:sodipodi="http://sodipodi.sourceforge.net/DTD/sodipodi-0.dtd"
   xmlns:inkscape="http://www.inkscape.org/namespaces/inkscape"
   version="1.1"
   id="Calque_1"
   x="0px"
   y="0px"
   width="841.89px"
   height="595.28px"
   viewBox="0 0 841.89 595.28"
   enable-background="new 0 0 841.89 595.28"
   xml:space="preserve"
   inkscape:version="0.48.3.1 r9886"
   sodipodi:docname="logo-kaleessi-pink-white.svg"
   inkscape:export-filename="/home/zido/git/kaleessi/site/www/images/kaleessi/logo-kaleessi-pink-white.png"
   inkscape:export-xdpi="35.714283"
   inkscape:export-ydpi="35.714283"><metadata
   id="metadata31"><rdf:RDF><cc:Work
       rdf:about=""><dc:format>image/svg+xml</dc:format><dc:type
         rdf:resource="http://purl.org/dc/dcmitype/StillImage" /><dc:title></dc:title></cc:Work></rdf:RDF></metadata><defs
   id="defs29" /><sodipodi:namedview
   pagecolor="#ffffff"
   bordercolor="#666666"
   borderopacity="1"
   objecttolerance="10"
   gridtolerance="10"
   guidetolerance="10"
   inkscape:pageopacity="0"
   inkscape:pageshadow="2"
   inkscape:window-width="1920"
   inkscape:window-height="1021"
   id="namedview27"
   showgrid="false"
   inkscape:zoom="2.3787124"
   inkscape:cx="342.96164"
   inkscape:cy="297.64001"
   inkscape:window-x="0"
   inkscape:window-y="27"
   inkscape:window-maximized="1"
   inkscape:current-layer="Calque_1" />
<path
   fill="#E61B72"
   d="M334.786,295.752c0,64.023-51.896,115.92-115.923,115.92c-64.022,0-115.92-51.897-115.92-115.92  s51.898-115.92,115.92-115.92C282.889,179.832,334.786,231.729,334.786,295.752z"
   id="path3" />
<g
   id="g5">
	<path
   fill="#1D1D1B"
   d="M370.352,330.285h-8.649v-14.059c-8.59,11.249-19.992,16.877-34.227,16.877   c-11.812,0-21.954-4.223-30.42-12.654c-8.451-8.437-12.665-18.554-12.665-30.33c0-11.927,4.203-22.064,12.65-30.436   c8.436-8.374,18.534-12.555,30.321-12.555c11.917,0,22.064,4.181,30.429,12.555c8.363,8.372,12.561,18.509,12.561,30.436V330.285z    M361.703,290.119c0-11.389-3.344-21.104-10.03-29.135c-6.701-8.033-14.807-12.055-24.311-12.055   c-9.375,0-17.411,4.021-24.091,12.055c-6.706,8.031-10.052,17.746-10.052,29.135c0,11.376,3.346,21.096,10.052,29.122   c6.681,8.039,14.717,12.051,24.091,12.051c9.504,0,17.609-4.012,24.311-12.051C358.358,311.215,361.703,301.495,361.703,290.119z"
   id="path7" />
	<path
   fill="#1D1D1B"
   d="M385.809,330.285h-8.632V208.156h8.632V330.285z"
   id="path9" />
	<path
   fill="#1D1D1B"
   d="M475.781,309.4c-3.616,7.101-8.832,12.82-15.659,17.173c-6.825,4.353-14.396,6.53-22.697,6.53   c-11.79,0-21.893-4.223-30.323-12.654c-8.432-8.437-12.655-18.554-12.655-30.33c0-11.927,4.223-22.064,12.655-30.436   c8.431-8.374,18.533-12.555,30.323-12.555c8.166,0,15.625,2.075,22.397,6.225c6.762,4.153,11.937,9.716,15.578,16.67   l-71.314,29.127c1.736,9.246,5.724,16.91,11.944,23.007c6.234,6.09,13.362,9.135,21.395,9.135c6.958,0,13.228-2.229,18.775-6.731   c5.559-4.483,9.746-10.416,12.56-17.78L475.781,309.4z M467.751,270.833c-2.814-6.698-6.926-12.02-12.343-15.977   c-5.432-3.948-11.427-5.926-17.983-5.926c-9.367,0-17.414,4.021-24.104,12.055c-6.692,8.031-10.036,17.746-10.036,29.135   c0,1.603,0.125,4.012,0.391,7.228L467.751,270.833z"
   id="path11" />
	<path
   fill="#1D1D1B"
   d="M566.172,309.4c-3.611,7.101-8.836,12.82-15.673,17.173c-6.815,4.353-14.387,6.53-22.696,6.53   c-11.787,0-21.889-4.223-30.33-12.654c-8.426-8.437-12.641-18.554-12.641-30.33c0-11.927,4.215-22.064,12.641-30.436   c8.441-8.374,18.543-12.555,30.33-12.555c8.181,0,15.629,2.075,22.405,6.225c6.751,4.153,11.952,9.716,15.574,16.67l-71.314,29.127   c1.745,9.246,5.722,16.91,11.948,23.007c6.215,6.09,13.356,9.135,21.387,9.135c6.978,0,13.226-2.229,18.773-6.731   c5.566-4.483,9.762-10.416,12.561-17.78L566.172,309.4z M558.146,270.833c-2.813-6.698-6.936-12.02-12.357-15.977   c-5.426-3.948-11.422-5.926-17.986-5.926c-9.37,0-17.41,4.021-24.1,12.055c-6.702,8.031-10.044,17.746-10.044,29.135   c0,1.603,0.131,4.012,0.406,7.228L558.146,270.833z"
   id="path13" />
	<path
   fill="#1D1D1B"
   d="M639.092,330.285c0,13.663-4.819,25.277-14.461,34.858c-9.644,9.57-21.287,14.362-34.949,14.362   c-13.516,0-25.109-4.792-34.759-14.362c-9.634-9.581-14.458-21.195-14.458-34.858c0-6.961,1.342-13.453,4.021-19.481l1.608,0.603   c-2.544,6.163-3.822,12.458-3.822,18.879c0,13.13,4.65,24.341,13.975,33.651c9.284,9.304,20.438,13.968,33.435,13.968   c11.251,0,20.82-4.664,28.714-13.968c7.906-9.311,11.858-20.521,11.858-33.651c0-22.62-11.381-36.091-34.147-40.363   c-6.832-1.348-12.248-3.926-16.281-7.744c-4.012-3.813-5.893-8.534-5.618-14.161c0.263-5.621,2.284-10.378,6.029-14.263   c3.747-3.88,8.379-5.825,13.868-5.825c5.482,0,10.174,1.973,14.056,5.923c3.887,3.953,5.832,8.683,5.832,14.165   c0,3.212-0.751,6.294-2.222,9.241l-1.003-0.604c1.34-2.545,2.017-5.425,2.017-8.637c0-5.091-1.813-9.473-5.428-13.161   c-3.62-3.677-7.903-5.521-12.859-5.521c-3.347,0-6.224,1.477-8.638,4.419c-2.413,2.945-3.611,6.964-3.611,12.051   c0,8.976,4.937,14.395,14.872,16.274c12.719,2.415,22.751,7.636,30.124,15.667C635.14,306.18,639.092,317.033,639.092,330.285z"
   id="path15" />
	<path
   fill="#1D1D1B"
   d="M710.605,330.285c0,13.663-4.825,25.277-14.454,34.858c-9.656,9.57-21.296,14.362-34.96,14.362   c-13.527,0-25.109-4.792-34.759-14.362c-9.646-9.581-14.451-21.195-14.451-34.858c0-6.961,1.335-13.453,4.012-19.481l1.611,0.603   c-2.552,6.163-3.831,12.458-3.831,18.879c0,13.13,4.669,24.341,13.972,33.651c9.307,9.304,20.456,13.968,33.446,13.968   c11.25,0,20.82-4.664,28.725-13.968c7.906-9.311,11.848-20.521,11.848-33.651c0-22.62-11.38-36.091-34.147-40.363   c-6.825-1.348-12.247-3.926-16.271-7.744c-4.011-3.813-5.894-8.534-5.626-14.161c0.27-5.621,2.282-10.378,6.028-14.263   c3.747-3.88,8.37-5.825,13.858-5.825c5.492,0,10.182,1.973,14.075,5.923c3.877,3.953,5.822,8.683,5.822,14.165   c0,3.212-0.753,6.294-2.223,9.241l-1.004-0.604c1.341-2.545,2.018-5.425,2.018-8.637c0-5.091-1.806-9.473-5.428-13.161   c-3.621-3.677-7.894-5.521-12.851-5.521c-3.354,0-6.235,1.477-8.637,4.419c-2.412,2.945-3.63,6.964-3.63,12.051   c0,8.976,4.955,14.395,14.869,16.274c12.735,2.415,22.769,7.636,30.146,15.667C706.657,306.18,710.605,317.033,710.605,330.285z"
   id="path17" />
	<path
   fill="#1D1D1B"
   d="M727.674,239.493c0,2.952-1.539,4.413-4.608,4.413c-2.679,0-4.028-1.461-4.028-4.413   c0-2.942,1.35-4.415,4.028-4.415C726.135,235.078,727.674,236.55,727.674,239.493z M727.674,330.285h-8.637v-80.35h8.637V330.285z"
   id="path19" />
</g>
<g
   id="g21">
	<path
   fill="#1D1D1B"
   d="M289.017,386.419c-4.886,0-9.374-1.29-13.459-3.87c-5.4-3.996-8.1-7.909-8.1-11.74l3.833,0.25   c3.863,6.912,9.336,10.741,16.415,11.49c3.356,0,6.638-1.582,9.85-4.745c0.711,0.105,1.3,0.274,1.835,0.472   c0.818-0.813,1.611-1.653,2.406-2.492c-3.151-1.555-7.182-3.376-12.12-5.475c0-0.75,0.017-1.723,0.054-2.932   c0.034-1.209,0.166-2.018,0.382-2.436c5.807,0.739,11.299,2.576,16.486,5.484c1.768-2.107,3.453-4.283,5.069-6.518   c-1.474-1.758-2.922-3.483-4.318-5.15c-9.522-11.364-19.152-21.688-28.892-30.971c-9.741-9.28-20.597-16.876-32.563-22.789   c-11.969-5.91-24.915-8.865-38.852-8.865c-2.843,0-4.96,0.083-6.347,0.25c-1.459,0.333-2.882,0.499-4.268,0.499l-1.532-111.265   l-11.039,0.073c-3.971,1.226-7.846,2.668-11.621,4.295h18.173c1.019,3.417,1.53,8.703,1.53,15.861   c-0.656,3.081-1.221,5.954-1.695,8.617c-0.477,2.665-1.04,5.141-1.696,7.429c-0.656,2.292-1.532,4.349-2.625,6.181h-0.221   c-2.405-1.746-3.756-3.246-4.047-4.495c2.407-7.242,3.611-13.57,3.611-18.982c0-2.828-0.292-5.118-0.876-6.866   c-4.088-0.831-10.362-1.249-18.825-1.249h-6.105c-2.411,1.417-4.77,2.916-7.067,4.5c0.896,2.478,2.649,5.219,5.294,8.237   c3.281,3.748,5.143,6.038,5.579,6.871c-0.436,0.916-0.839,1.768-1.202,2.558c-0.367,0.794-0.915,1.23-1.641,1.312   c-2.408-1.417-4.322-2.642-5.749-3.686c-1.418-1.035-2.991-2.39-4.704-4.057c-1.716-1.664-3.048-3.453-3.994-5.37   c-0.124-0.283-0.23-0.542-0.346-0.817c-2.265,1.818-4.455,3.72-6.575,5.7l-0.161,168.766c2.836,2.659,5.8,5.18,8.891,7.547   c1.119-4.12,2.556-7.461,4.319-9.99l3.611,1.998c0.438,0.749,0.658,1.334,0.658,1.752c-1.584,3.318-2.688,6.671-3.344,10.047   c2.581,1.754,5.248,3.386,7.97,4.933c0.285-3.404,1.057-6.473,2.378-9.176c1.603-3.285,3.992-6.932,7.166-10.923   c3.173-4,5.307-6.872,6.404-8.618c-0.22-0.83-0.73-1.54-1.533-2.125l-9.192,2.875c-0.436-0.251-0.97-0.542-1.586-0.875   c-0.623-0.334-1.134-0.751-1.531-1.251c-0.406-0.494-0.714-1.079-0.931-1.745c0.363-1.167,0.728-1.749,1.092-1.749   c6.275-4.079,11.673-6.121,16.198-6.121c1.387,0,2.626,0.251,3.721,0.75c0.658,1.748,0.985,3.706,0.985,5.869   c0,3.414-0.749,6.474-2.241,9.18c-1.498,2.707-3.907,6.18-7.225,10.427c-3.323,4.243-5.489,7.326-6.512,9.239   c-0.437,0.749-0.655,1.792-0.655,3.125c0,1,0.218,1.498,0.655,1.498c1.46,0,3.12-0.331,4.981-1c1.86-0.665,3.119-1.081,3.775-1.247   c1.97,1.083,2.955,2.454,2.955,4.121c-2.323,1.622-4.741,2.794-7.243,3.546c2.711,1.155,5.489,2.188,8.301,3.14   c1.396-0.358,2.694-0.797,3.865-1.317c-0.146,0-0.073-0.623,0.22-1.874c-0.729-5.494-4.233-10.448-10.505-14.862   c2.187-2.497,3.83-3.744,4.923-3.744c1.167,0.334,2.206,0.982,3.122,1.937c0.908,0.958,2.24,2.52,3.992,4.683   c3.284,5.243,4.924,10.948,4.924,17.104c0,0.329-0.038,0.712-0.056,1.066c1.578,0.373,3.167,0.718,4.772,1.021l0.208-108.23   c1.165-0.829,2.518-1.251,4.048-1.251c2.409,0,5.181,1.042,8.319,3.122c7.223,7.326,17.017,19.715,29.382,37.15   c12.368,17.443,21.818,30.243,28.349,38.401c3.977,4.969,8.745,9.734,14.277,14.305c3.31-2.149,6.507-4.455,9.571-6.919   C289.85,386.343,289.397,386.377,289.017,386.419z M189.969,245.057c1.754,4.83,2.628,9.949,2.628,15.358   c0,4.248-0.51,8.476-1.531,12.677c-1.023,4.207-2.446,7.889-4.27,11.05c-0.292,0.335-0.584,0.501-0.874,0.501   c-0.657,0-1.351-0.624-2.079-1.872c-0.731-1.248-1.095-2.248-1.095-2.998c0.802-2.416,1.588-4.85,2.351-7.306   c0.769-2.455,1.26-5.057,1.479-7.806c0-6.91-1.443-13.256-4.323-19.043c-2.882-5.785-6.805-11.634-11.766-17.546   c0.511-0.498,1.131-1.122,1.862-1.871c0.729-0.751,1.533-1.207,2.408-1.375C182.785,232.07,187.856,238.813,189.969,245.057z    M163.487,293.384c0.584,0.334,1.02,0.499,1.313,0.499c0.874,0,2.261-0.562,4.158-1.686c1.898-1.125,2.99-1.684,3.284-1.684   c1.968,0.664,2.954,1.29,2.954,1.873c0,0.333-0.109,0.857-0.328,1.561c-0.218,0.708-0.327,1.104-0.327,1.188   c-3.503,2.915-7.844,4.368-13.024,4.368h-0.876c-0.585-0.167-0.988-0.478-1.204-0.938c-0.219-0.453-0.512-1.287-0.875-2.497   c-0.366-1.205-0.585-1.934-0.657-2.185c0-5.161,1.093-9.573,3.282-13.236c2.192-3.662,5.729-8.617,10.618-14.861   c1.822-3.994,2.737-6.908,2.737-8.739c0-1.418-0.331-2.54-0.986-3.374c-0.146-0.499-0.73-0.75-1.75-0.75l-5.802,4.124l-4.267-6.119   c4.523-3.58,9.885-5.371,16.087-5.371c1.605,2.249,2.59,4.871,2.955,7.866c0,4.746-0.802,8.515-2.407,11.304   c-1.605,2.791-4.378,6.513-8.319,11.176c-0.364,0.835-1.625,3.122-3.773,6.869c-2.153,3.747-3.229,6.574-3.229,8.492   C163.049,292.011,163.193,292.719,163.487,293.384z M160.804,228.199c1.207-2.749,3.156-6.14,5.855-10.177   c2.7-4.037,4.196-6.307,4.488-6.805c0-3.416-0.439-5.372-1.314-5.872l-7.66,3.622c-1.826-1.332-3.323-3.036-4.487-5.122   c5.76-2.579,10.249-3.87,13.46-3.87c1.752,0,3.393,0.25,4.923,0.75c0.729,0.833,1.094,1.873,1.094,3.12   c0,2.999-0.4,5.538-1.203,7.619c-0.802,2.081-2.263,4.806-4.378,8.178c-2.115,3.373-3.648,5.914-4.596,7.619   c-0.947,1.709-1.823,4.058-2.626,7.056c0,2.498,0.402,3.746,1.204,3.746c0.583,0,1.496-0.331,2.737-0.998   c1.239-0.667,2.115-1,2.626-1c0.29,0,0.583,0.167,0.875,0.5c0.583,0.666,0.875,1.708,0.875,3.123   c-3.721,2.832-7.367,4.244-10.943,4.244c-0.802-0.33-1.312-0.623-1.532-0.873c-0.22-0.248-0.475-0.875-0.767-1.872   c-0.292-2-0.439-3.374-0.439-4.122C158.998,233.901,159.601,230.944,160.804,228.199z M147.618,215.336   c1.677,0,3.463,1.542,5.363,4.621c-1.461,4.745-2.227,7.743-2.301,8.991c0,5.243,0.768,10.075,2.301,14.486   c1.53,4.412,3.5,8.349,5.91,11.801c2.407,3.458,5.289,6.973,8.645,10.551l-4.487,4.996c-0.074,0.083-0.165,0.188-0.275,0.311   c-0.11,0.128-0.236,0.232-0.382,0.314c-4.89-3.996-8.683-8.368-11.381-13.114c-4.524-7.99-6.785-16.856-6.785-26.595   C144.225,225.369,145.355,219.917,147.618,215.336z M143.13,287.266c0-3.913,0.655-7.992,1.971-12.24   c1.313-4.244,2.954-7.697,4.925-10.364c1.021,0.417,1.876,1.167,2.573,2.25c0.691,1.08,1.038,2.289,1.038,3.622   c-2.263,3.579-3.466,6.824-3.611,9.74c0,14.067,3.756,24.642,11.272,31.719c0.583,1,1.677,2.31,3.284,3.933   c1.602,1.623,2.588,3.059,2.955,4.31c-0.658,0.749-1.078,1.374-1.258,1.874c-0.183,0.497-0.347,0.789-0.491,0.875   c-0.15,0.08-0.622,0.247-1.425,0.494c-6.274-5.908-11.038-11.005-14.28-15.293c-3.249-4.289-5.347-9.222-6.295-14.8   C143.349,291.556,143.13,289.514,143.13,287.266z M166.66,375.181c-0.585,1.247-1.495,2.79-2.736,4.622h-0.875   c-3.356-1.501-6.42-4.065-9.195-7.682c-2.773-3.623-5.141-7.64-7.111-12.052c-1.532-4.33-2.298-9.199-2.298-14.609   c0-9.992,2.552-18.734,7.661-26.229c2.479,0.503,4.048,1.752,4.706,3.752c-3.065,3.913-5.109,9.736-6.131,17.48   c0,7.661,1.44,14.218,4.327,19.67C157.885,365.584,161.771,370.603,166.66,375.181z M177.823,348.331   c-2.993,2.251-5.856,4.041-8.589,5.368c-2.739,1.335-5.676,1.999-8.81,1.999c-0.513-0.163-0.86-0.752-1.039-1.748   c-0.186-0.999-0.313-1.578-0.387-1.749c0-6.494,1.097-12.257,3.284-17.294c2.189-5.037,5.364-9.928,9.522-14.673   c1.97-3.33,2.955-6.159,2.955-8.494c0-0.999-0.256-1.748-0.767-2.246c-0.729,0-1.934,0.456-3.612,1.376   c-1.678,0.916-2.775,1.37-3.282,1.37c-0.586,0-1.096-0.248-1.534-0.75c-0.509-0.162-0.765-0.996-0.765-2.494   c2.479-1.831,4.595-3.267,6.348-4.308c1.752-1.042,3.682-1.563,5.8-1.563c0.437,0.248,0.784,0.708,1.04,1.373   c0.254,0.665,0.601,1.458,1.038,2.372c0.586,1.92,0.876,3.958,0.876,6.122c0,2.995-0.639,5.765-1.915,8.301   c-1.279,2.544-3.009,5.31-5.199,8.306c-2.188,3-3.94,5.682-5.252,8.055c-1.313,2.37-1.971,4.891-1.971,7.553   c0,1.583,0.366,2.376,1.095,2.376c1.022,0,2.826-0.628,5.418-1.875c2.587-1.25,4.213-1.915,4.87-1.996   c0.875,0.996,1.314,2.125,1.314,3.372C178.262,347.582,178.115,348,177.823,348.331z M190.846,386.669   c-0.729,0.666-1.387,0.996-1.971,0.996c-1.458-2.163-2.28-3.535-2.46-4.117c-0.186-0.584-0.273-1.748-0.273-3.5   c1.166-3.658,1.75-7.822,1.75-12.486c0-11.988-4.379-23.688-13.133-35.089c0.656-0.832,1.274-1.645,1.862-2.438   c0.581-0.787,1.275-1.185,2.079-1.185c1.313,0.996,2.917,2.791,4.813,5.37c1.898,2.584,3.541,4.663,4.927,6.244   c3.72,7.825,5.58,16.567,5.58,26.223C194.02,373.432,192.96,380.092,190.846,386.669z M192.817,335.591   c-1.461,0-2.428-0.099-2.902-0.311c-0.476-0.206-0.82-0.561-1.04-1.061c-0.219-0.5-0.766-1.83-1.641-3.997   c0.583-2.329,0.875-5.164,0.875-8.49c0-2.916-0.328-6.163-0.983-9.74c-0.658-3.582-1.569-6.972-2.737-10.18   c-1.168-3.205-2.7-6.324-4.597-9.365c-1.897-3.036-3.978-5.64-6.238-7.805c-0.51-0.582-1.077-1.185-1.695-1.811   c-0.621-0.624-0.931-1.391-0.931-2.308c0.364-0.416,0.747-0.876,1.149-1.375c0.4-0.497,0.822-0.937,1.259-1.312   c0.438-0.373,0.91-0.561,1.422-0.561l4.706,5.37c4.305,5.163,7.916,11.346,10.834,18.547c2.917,7.201,4.378,14.377,4.378,21.536   C194.677,327.725,194.057,332.015,192.817,335.591z M284.967,377.804c-1.24,0-2.259-0.879-3.063-2.623l-0.329-19.23h2.736   l1.313,21.227C285.259,377.595,285.041,377.804,284.967,377.804z M285.789,346.335c3.395,0.665,6.733,1.915,10.015,3.744   c6.201,5.163,9.558,10.364,10.067,15.611c-1.093,0-2.445-0.439-4.047-1.313c-1.607-0.875-2.592-1.599-2.956-2.187   c-1.827-3.746-3.758-6.325-5.801-7.741c-2.042-1.415-5.309-2.537-9.794-3.37c-4.489-0.833-8.483-1.745-11.983-2.748   c0-2.081,0.291-3.457,0.875-4.121C277.855,344.959,282.397,345.668,285.789,346.335z M269.756,324.355   c7.878,5.327,11.819,10.948,11.819,16.858c-0.437,0.497-0.875,0.749-1.313,0.749c-0.366,0-0.876-0.252-1.532-0.749   c-3.137-7.744-8.356-12.446-15.652-14.113c-1.53,0.084-2.863,0.544-3.997,1.376c-1.131,0.833-2.278,2.038-3.444,3.618   c-1.169,1.587-2.008,2.667-2.518,3.247c-1.095,0-2.042-0.455-2.846-1.371c0-1.665,0.383-3.143,1.147-4.434   c0.769-1.29,2.244-3.391,4.435-6.307c1.752-1,3.759-1.498,6.021-1.498C264.793,321.732,267.42,322.605,269.756,324.355z    M268.006,357.071c-0.073,0.084-0.165,0.168-0.273,0.251c-0.112,0.084-0.203,0.167-0.276,0.247l-3.064-1.871l-2.518-24.472   c0.877-0.503,1.641-0.754,2.297-0.754c0.804,0,1.607,0.669,2.41,2L268.006,357.071z M227.179,318.983   c-5.399-8.155-9.374-13.649-11.929-16.485c1.313-0.996,3.355-1.498,6.13-1.498c3.721,0,8.352,1.167,13.895,3.498   c5.546,2.334,10.583,4.896,15.107,7.682c4.523,2.791,7.077,4.683,7.659,5.683l-4.923,2.372c-2.921-2.084-5.089-3.561-6.513-4.435   c-1.42-0.873-3.339-1.434-5.746-1.687c-0.805-0.58-1.644-0.873-2.518-0.873c-1.093,0-2.009,0.5-2.736,1.5   c-0.73,0.996-1.095,2.122-1.095,3.369c0,4.746,3.266,9.807,9.798,15.175c6.528,5.37,11.509,8.427,14.939,9.176   c0,0.666-0.167,1.563-0.491,2.688c-0.332,1.121-0.859,1.769-1.588,1.936c-6.056-1.747-11.22-4.828-15.487-9.241   C237.41,333.432,232.579,327.143,227.179,318.983z M246.661,347.083c0.292-0.334,0.655-0.501,1.095-0.501   c0.51,0,1.184,0.125,2.026,0.372c0.836,0.255,1.22,0.373,1.147,0.373c1.677,3.669,3.941,6.498,6.786,8.498   c2.847,1.996,5.71,3.434,8.594,4.309c2.882,0.875,6.877,1.894,11.985,3.059c-0.076,0.831-0.166,1.685-0.275,2.557   c-0.109,0.878-0.385,1.646-0.821,2.313h-6.784C259.904,366.232,251.987,359.238,246.661,347.083z"
   id="path23" />
	<path
   fill="#1D1D1B"
   d="M247.644,234.006c-3.137,5.455-7.679,13.423-13.625,23.912c-5.949,10.49-10.998,18.651-15.155,24.478   c3.792,1.332,7.693,1.997,11.708,1.997c5.18,0,9.885-1.372,14.12-4.119c4.232-2.75,7.88-5.995,10.946-9.74   c3.063-3.748,7.698-9.784,13.901-18.106c2.99-4.164,5.746-8.785,8.262-13.863c2.519-5.078,4.963-10.427,7.331-16.045   c2.047-4.854,4.241-10.001,6.558-15.41c-0.631-0.524-1.285-1.02-1.929-1.53c-1.161,3.083-2.83,6.398-5.009,9.946   c-3.502,5.704-6.935,8.554-10.288,8.554v-2.374c0.365-0.582,1.168-1.225,2.407-1.936c1.239-0.705,2.08-1.311,2.517-1.808   c2.625-3,4.523-5.788,5.688-8.369c0.838-1.849,1.364-3.989,1.602-6.4c-1.401-1.036-2.823-2.047-4.271-3.02   c-4.097,1.915-6.978,4.137-8.599,6.673c-0.368,0-0.767,0.105-1.205,0.311c-0.438,0.211-0.803,0.315-1.095,0.315   c-0.583,0-0.947-0.208-1.092-0.626c2.168-3.572,5.014-6.53,8.494-8.917c-0.723-0.45-1.455-0.891-2.191-1.324   c-0.17,0.13-0.333,0.243-0.504,0.376c-6.421,6.16-12.006,12.508-16.747,19.042C254.723,222.561,250.782,228.555,247.644,234.006z    M245.349,242.309c0.583-1.25,1.604-3.164,3.063-5.744c6.275-7.157,12.112-10.738,17.515-10.738   c0.437,0.249,0.656,0.666,0.656,1.249c0,0.415-0.219,0.748-0.656,0.996c-4.015,0.585-7.664,2.417-10.948,5.498   c-3.283,3.078-5.983,6.993-8.101,11.736c-0.363,0.085-0.749,0.191-1.148,0.313c-0.402,0.127-0.82,0.27-1.259,0.437   C244.471,244.81,244.763,243.558,245.349,242.309z M260.562,237.814l-0.219,13.114c-0.438,0.166-1.35,0.249-2.735,0.249   l-0.221-14.611c0.293-0.333,0.767-0.5,1.425-0.5C259.76,236.066,260.342,236.647,260.562,237.814z M246.936,273.218   c-5.805,3.706-12.026,5.558-18.663,5.558c0.072-2.665,0.563-5.078,1.476-7.247c0.911-2.161,2.281-5.035,4.106-8.614   c6.493-11.24,13.39-17.733,20.688-19.48c0.727,0.249,1.095,0.707,1.095,1.375c0,0.415-0.368,0.915-1.095,1.497   c-4.815,3.83-8.594,7.304-11.329,10.427c-2.738,3.121-4.799,7.138-6.184,12.049c0.143,1.083,0.874,1.959,2.187,2.624   c2.773-0.25,6.475-1.976,11.11-5.182c4.634-3.203,7.462-4.809,8.485-4.809C256.694,265.581,252.736,269.515,246.936,273.218z    M265.927,252.427c-1.901,3.911-6.313,5.866-13.248,5.866c-1.166-0.499-2.061-0.893-2.679-1.187c-0.622-0.29-1.15-0.81-1.588-1.56   c0.22-1.082,0.474-1.622,0.767-1.622c0.729,0,1.603,0.081,2.626,0.249c1.021,0.168,1.859,0.251,2.517,0.251   c6.276,0,10.838-4.165,13.685-12.489c0.509-0.081,0.965-0.146,1.366-0.187c0.401-0.042,0.822-0.061,1.263-0.061   C270.266,245.101,268.698,248.678,265.927,252.427z M277.199,227.574c0.071-0.252,0.165-0.438,0.272-0.561   c0.112-0.128,0.238-0.23,0.384-0.312c0.146-0.084,0.364-0.208,0.658-0.375c1.021,0,1.53,0.417,1.53,1.248   c-1.021,3.58-2.844,6.37-5.471,8.366c-2.626,1.998-6.094,3.748-10.399,5.248c-0.289,0-0.474-0.146-0.546-0.437   c-0.074-0.29-0.11-1.269-0.11-2.937c3.431-1.082,6.276-2.373,8.539-3.87C274.316,232.444,276.03,230.321,277.199,227.574z    M268.662,231.698V217.96c0.071,0,0.384-0.146,0.928-0.438c0.551-0.291,0.896-0.439,1.044-0.439c0.437,0,0.655,0.292,0.655,0.876   l-0.219,13.235C270.486,231.529,269.683,231.698,268.662,231.698z M266.583,211.965c1.604-0.999,3.464-1.498,5.582-1.498   c2.626,0,4.596,0.583,5.911,1.747c0.438,0.582,0.656,1.208,0.656,1.873c-0.366,0.667-0.876,1-1.532,1   c-0.367,0-1.203-0.251-2.519-0.75c-1.313-0.499-2.445-0.748-3.39-0.748c-2.044,0-4.124,1.082-6.239,3.246   c-1.094,1.333-2.226,3.579-3.395,6.743c-0.655,1-1.387,1.5-2.188,1.5c-0.729,0-1.094-0.5-1.094-1.5   C260.051,218.167,262.789,214.295,266.583,211.965z"
   id="path25" />
</g>
<path
   style="fill:#ffffff;fill-opacity:1;fill-rule:evenodd;stroke:#ffffff;stroke-width:0.42039549;stroke-opacity:1"
   d="m 193.30084,408.93072 c -1.1805,-0.2498 -1.28246,-0.42815 -1.59367,-2.78793 -1.10752,-8.39793 -3.16315,-13.65599 -7.19187,-18.39602 -2.62715,-3.09099 -4.42793,-4.29312 -5.78558,-3.86222 -1.10065,0.34933 -4.13648,3.07326 -4.13648,3.7115 0,0.26516 1.06064,1.31048 2.35698,2.32293 4.17193,3.25832 7.73252,9.16992 7.73252,12.8382 0,1.30315 -0.1513,1.46765 -1.89695,2.06245 -1.85441,0.63186 -1.97686,0.61625 -5.45974,-0.69617 -1.95953,-0.73839 -3.55204,-1.43712 -3.5389,-1.55273 0.0131,-0.11561 1.38225,-0.8735 3.04246,-1.6842 3.67047,-1.79233 4.00678,-2.66661 1.85391,-4.81949 l -1.43631,-1.43631 -3.11367,0.98656 c -1.71251,0.5426 -3.77578,1.05215 -4.58504,1.13233 -1.43048,0.14172 -1.47505,0.10132 -1.60321,-1.45328 -0.16903,-2.05042 0.56854,-3.30216 7.25689,-12.31578 2.89964,-3.90772 6.05215,-8.64112 7.00559,-10.51867 1.55303,-3.05832 1.75624,-3.81218 1.95173,-7.24091 0.25981,-4.55658 -0.37476,-7.45029 -1.7351,-7.91227 -1.60613,-0.54545 -6.02305,-0.21424 -8.95456,0.67147 -3.8906,1.17549 -10.27759,4.66452 -11.05943,6.04146 -0.56897,1.00202 -0.54731,1.19551 0.25414,2.27071 0.48185,0.64645 1.47992,1.52895 2.21792,1.96112 1.33842,0.78378 1.35232,0.78244 5.47823,-0.52549 4.83284,-1.53204 5.32284,-1.5753 5.8877,-0.51984 0.45542,0.85095 0.35313,1.0103 -7.31768,11.40005 -4.3649,5.91206 -6.80455,10.60261 -7.49822,14.41635 -0.28566,1.57051 -0.64141,2.89475 -0.79055,2.94277 -0.64029,0.20612 -7.06812,-4.07078 -7.06349,-4.69986 0.008,-1.02391 1.04041,-4.59886 2.07132,-7.16917 1.21758,-3.03571 0.92725,-3.9709 -1.636,-5.2698 l -2.06777,-1.04782 -1.23751,2.20044 c -0.68063,1.21025 -1.56736,3.24093 -1.97051,4.51263 -0.40316,1.27169 -0.86417,2.45712 -1.02447,2.63429 -0.16031,0.17716 -2.12342,-1.20699 -4.36248,-3.0759 l -4.07102,-3.39801 0,-84.39682 0,-84.39681 2.62747,-2.30758 c 1.44511,-1.26917 2.85152,-2.44132 3.12536,-2.60477 0.31241,-0.18648 1.06847,0.56244 2.02962,2.01047 0.84245,1.26921 2.60477,3.29161 3.91627,4.49422 3.08705,2.83075 9.18099,6.80997 9.9671,6.50831 0.74716,-0.28671 2.293,-2.74898 2.29515,-3.65582 0.002,-0.70972 -0.56852,-1.49365 -5.5167,-7.58431 -3.3744,-4.15352 -5.33274,-7.45698 -4.67851,-7.89204 0.21361,-0.14205 1.87054,-1.19024 3.68207,-2.32931 l 3.2937,-2.07104 10.96431,0.49465 c 6.03037,0.27206 11.47995,0.61037 12.11017,0.75181 1.48719,0.33376 1.81395,1.82138 1.74414,7.94037 -0.0539,4.72448 -0.96049,9.99697 -2.63681,15.33498 -0.79598,2.53469 -0.80815,2.79648 -0.17582,3.78356 0.82664,1.29036 3.11069,3.33206 3.75387,3.35553 1.26397,0.0461 3.89073,-8.7708 5.85878,-19.66555 0.61154,-3.38535 0.64369,-4.69945 0.23654,-9.6691 -0.25915,-3.16321 -0.66846,-6.4607 -0.90958,-7.32777 l -0.4384,-1.57648 -8.49324,-0.0128 c -5.04828,-0.008 -8.23748,-0.16169 -7.86266,-0.37991 0.34682,-0.20192 2.52237,-1.02331 4.83455,-1.8253 3.65476,-1.26768 4.9501,-1.49779 9.91556,-1.76145 l 5.71161,-0.30327 0.26748,16.32971 c 0.14712,8.98134 0.49798,34.07652 0.77969,55.76707 l 0.51221,39.43735 3.80839,-0.34057 c 8.92388,-0.79805 20.50507,0.0839 28.52802,2.17263 8.47459,2.20626 13.85049,4.38999 22.41042,9.10327 18.78058,10.34098 32.85448,23.31618 59.78435,55.11718 0.56086,0.66232 0.39314,1.02713 -1.77149,3.85324 l -2.391,3.12166 -3.45087,-1.61484 c -3.29817,-1.54339 -7.77198,-2.92426 -11.48411,-3.54463 l -1.7273,-0.28866 -0.26495,1.6034 c -0.6921,4.1885 -0.95098,3.88171 5.80556,6.88016 l 6.07976,2.69811 -1.05428,1.10043 c -0.75784,0.79101 -1.35042,1.04382 -2.10747,0.8991 -0.68309,-0.13058 -1.37804,0.0939 -1.97761,0.63874 -1.81364,1.64815 -4.31921,3.01589 -6.34938,3.46602 -5.31252,1.1779 -12.9972,-2.68723 -16.86294,-8.48145 -1.66962,-2.50253 -2.20409,-2.86514 -4.22309,-2.86514 l -1.75716,0 0.37041,1.98267 c 0.45978,2.4611 1.90311,4.67931 4.9462,7.60163 3.65644,3.51134 8.5373,5.65412 14.36957,6.30848 l 2.60656,0.29245 -4.30728,3.0806 -4.30728,3.0806 -1.11292,-0.97739 c -9.76121,-8.57245 -14.89394,-14.87811 -36.55712,-44.91118 -17.11026,-23.72108 -24.42841,-33.22648 -31.38163,-40.76103 -3.36986,-3.6516 -4.31109,-4.30904 -7.89985,-5.51801 -2.69468,-0.90777 -4.65978,-0.87727 -6.81738,0.10579 l -1.06467,0.4851 0,53.95334 c 0,51.12282 -0.0386,53.95073 -0.73569,53.9036 -0.40463,-0.0274 -1.30322,-0.16983 -1.99688,-0.3166 z m -2.77834,-21.86885 c 0.79848,-0.79848 2.08557,-5.56552 3.02025,-11.18625 0.68269,-4.10537 0.58408,-15.18318 -0.17588,-19.75859 -1.59439,-9.59915 -3.57638,-14.28886 -8.90001,-21.05883 -2.30491,-2.93112 -4.60541,-5.601 -5.11221,-5.93307 -1.1582,-0.75888 -2.09856,-0.30771 -3.67991,1.76554 l -1.15099,1.50902 2.72852,4.08135 c 8.6417,12.92638 12.12436,26.99345 9.64904,38.97418 -1.09868,5.3177 -0.95841,8.0735 0.5309,10.43075 1.36716,2.16389 1.89967,2.36652 3.09029,1.1759 l 0,0 z m -24.90989,-9.6828 1.36679,-2.2801 -3.31252,-3.49944 c -8.912,-9.41492 -13.15415,-19.91234 -12.49931,-30.93018 0.34579,-5.81791 2.21721,-12.00978 4.82032,-15.94876 1.22679,-1.85635 1.02251,-2.86997 -0.86636,-4.29873 -2.60523,-1.97064 -3.10086,-1.74218 -5.38881,2.48392 -4.02105,7.42734 -5.62767,14.86139 -5.26956,24.38294 0.36035,9.58124 1.93179,14.12092 7.96719,23.01614 3.62229,5.33868 8.71554,9.71447 10.99855,9.44923 0.48694,-0.0566 1.36901,-1.01592 2.18371,-2.37502 l 0,0 z m 119.59512,-10.85725 -0.63372,-10.61499 -1.66705,0 -1.66705,0 0.28332,9.75239 c 0.30151,10.37877 0.49497,11.31332 2.50245,12.08904 1.78494,0.68973 1.85418,0.0321 1.18205,-11.22644 l 0,0 z m -7.23832,0.25256 c 0.25384,-0.72816 0.46152,-1.84855 0.46152,-2.48977 0,-1.33821 -0.13512,-1.39718 -7.14672,-3.11929 -9.91873,-2.43611 -15.69065,-6.04443 -19.00683,-11.88212 -0.88494,-1.55782 -1.58387,-2.28229 -2.36973,-2.45635 -0.61303,-0.13578 -1.39837,-0.31955 -1.74519,-0.4084 -0.34683,-0.0888 -0.88273,-0.003 -1.1909,0.1905 -0.44286,0.27824 -0.25996,0.95913 0.87262,3.24847 2.33359,4.71699 3.60999,6.48529 7.42192,10.28216 5.78868,5.76582 10.68195,7.9296 17.97386,7.94797 l 4.26793,0.0108 0.46152,-1.32391 0,-2e-5 z m 27.96813,-1.93414 c -1.04426,-4.72477 -2.70683,-7.68459 -6.63262,-11.8078 -2.91722,-3.06393 -7.37683,-5.47885 -12.09091,-6.54737 -4.05028,-0.91806 -15.07803,-2.50043 -15.37263,-2.20582 -0.14213,0.14213 -0.34617,1.17165 -0.45342,2.28782 l -0.195,2.02941 5.19547,1.17663 c 2.85751,0.64715 6.76507,1.53383 8.68347,1.9704 1.9184,0.43657 4.41815,1.19391 5.555,1.68297 2.42363,1.04261 5.26515,3.92417 7.13257,7.23305 1.38382,2.45199 3.08343,3.77183 6.10539,4.74116 2.32884,0.747 2.3598,0.73863 2.07268,-0.56045 l 0,0 z m -37.90138,-9.36551 c -0.0523,-1.03404 -0.29084,-5.75822 -0.53009,-10.49818 -0.58211,-11.53232 -0.73479,-12.75412 -1.72688,-13.819 -0.93445,-1.00302 -2.39224,-1.1597 -3.43651,-0.36935 -0.6426,0.48635 -0.60226,1.40243 0.54143,12.29657 0.67967,6.47409 1.23973,11.98897 1.24457,12.25528 0.0119,0.6518 2.5816,2.27537 3.37197,2.13041 0.46692,-0.0856 0.60592,-0.60361 0.53551,-1.99573 z m -103.448,-0.0325 c 2.88139,-0.60088 6.6623,-2.39699 10.62481,-5.04728 3.40002,-2.27407 3.80686,-3.1268 2.67596,-5.60885 -0.6415,-1.40794 -1.36688,-1.35379 -5.18732,0.38724 -5.93359,2.70401 -6.93667,2.67442 -6.93667,-0.20462 0,-3.81233 1.26245,-6.40364 8.12888,-16.68527 5.21868,-7.81432 5.89576,-9.55671 5.92879,-15.25701 0.0214,-3.68427 -0.14167,-4.85495 -0.98592,-7.07999 -0.55632,-1.46622 -1.28197,-2.76964 -1.61256,-2.8965 -1.4643,-0.5619 -5.29103,0.8568 -8.99641,3.33528 -3.49998,2.34111 -3.76923,2.62008 -3.51323,3.64007 0.65807,2.62197 1.85804,2.84907 5.72963,1.08437 3.73911,-1.70432 4.36777,-1.46287 4.01202,1.54086 -0.32927,2.78016 -2.32271,6.84471 -4.95996,10.11317 -5.61045,6.95328 -8.93057,14.30856 -10.21646,22.63319 -0.41761,2.70354 -0.34856,8.18419 0.11785,9.3538 0.52847,1.32522 1.51898,1.45718 5.19059,0.69152 l 0,2e-5 z m 93.81711,-9.30964 c 0.3262,-0.52024 0.70915,-1.61083 0.85099,-2.42352 0.25326,-1.45117 0.22212,-1.49038 -1.7395,-2.18937 -6.52538,-2.32522 -18.12095,-11.95144 -21.05203,-17.47663 -1.59101,-2.99911 -2.12272,-6.41702 -1.24971,-8.03334 0.30017,-0.55575 1.0556,-1.38893 1.67873,-1.8515 1.09799,-0.81507 1.20831,-0.81922 3.57337,-0.13433 4.88268,1.41396 6.00723,1.92152 9.2395,4.17018 l 3.29038,2.28909 2.62748,-1.18657 c 1.44511,-0.65262 2.62747,-1.28253 2.62747,-1.39982 0,-1.67913 -16.21442,-11.07515 -24.59314,-14.25136 -6.66478,-2.52649 -12.61615,-3.40391 -16.18523,-2.3862 -2.85371,0.81372 -2.85069,0.86305 0.29932,4.88577 1.60579,2.05066 4.97294,6.75533 7.48255,10.45481 13.17986,19.42871 19.0105,25.548 27.86266,29.24196 3.48615,1.45475 4.52163,1.51171 5.28716,0.29083 l 0,0 z m 23.2538,-4.77375 c 0.34736,-0.90522 -0.52479,-4.56268 -1.63703,-6.86506 -1.2075,-2.49954 -5.90371,-7.3751 -9.43954,-9.80002 -4.63137,-3.17626 -9.2277,-3.90244 -13.59174,-2.14736 -2.28935,0.9207 -6.71727,7.74678 -6.7229,10.36402 -0.003,1.4006 0.16444,1.66986 1.36286,2.19162 1.30499,0.56815 1.40969,0.54367 2.33391,-0.54579 4.11882,-4.85523 5.04427,-5.75093 6.69751,-6.48224 1.27175,-0.56256 2.24838,-0.72333 3.18079,-0.52362 2.03321,0.4355 5.99202,2.50187 8.09576,4.22572 1.86285,1.52646 5.28561,6.24502 5.83793,8.04805 0.15895,0.51887 0.57388,1.22829 0.92208,1.57649 0.83527,0.83527 2.63355,0.80987 2.96037,-0.0418 l 0,-2e-5 z m -88.18043,-7.20753 c 1.51774,-5.69149 1.6257,-15.97231 0.23508,-22.38606 -1.7341,-7.99791 -6.44519,-18.75632 -10.9833,-25.08185 -4.02144,-5.60537 -7.39836,-9.37322 -8.40892,-9.38239 -1.07565,-0.01 -3.51182,2.60952 -3.51182,3.77578 0,0.44656 1.38187,2.37905 3.07082,4.29442 4.02393,4.56337 5.72277,6.96848 7.80483,11.04961 4.50836,8.837 6.80999,20.40208 5.88649,29.57803 -0.3819,3.79453 -0.34599,4.62751 0.27218,6.31436 0.88812,2.42346 1.99276,3.41459 3.80563,3.41459 1.27272,0 1.44916,-0.15208 1.82901,-1.57649 z M 165.575,323.21464 c 0.24235,-0.16987 0.86651,-0.91869 1.38701,-1.66405 1.19982,-1.71815 1.07518,-1.96973 -3.67529,-7.41819 -1.98964,-2.28197 -4.39864,-5.16931 -5.35334,-6.4163 -3.76152,-4.91317 -6.23205,-11.82784 -7.31801,-20.48206 -0.7528,-5.99922 -0.36829,-9.29655 1.56437,-13.41497 0.92686,-1.9751 1.53154,-3.8441 1.44862,-4.47749 -0.21393,-1.63407 -1.2021,-3.30532 -2.43011,-4.10994 -1.06317,-0.69662 -1.1218,-0.68727 -1.92717,0.30732 -2.17611,2.68739 -4.88998,10.012 -5.79908,15.65147 -0.75857,4.7057 -0.32823,11.38552 1.02986,15.98572 2.10632,7.1346 5.10265,11.61647 13.89902,20.78999 5.01212,5.22701 6.08497,6.0119 7.17412,5.2485 l 0,0 z m 1.7243,-24.22723 c 2.39258,-0.63704 6.08791,-2.51715 7.06113,-3.59255 0.34456,-0.38073 0.67978,-1.33983 0.74494,-2.13133 0.10409,-1.2645 -0.0607,-1.53669 -1.35814,-2.24365 l -1.47661,-0.80456 -3.45371,1.73649 c -1.89954,0.95507 -3.63357,1.73649 -3.8534,1.73649 -0.7469,0 -1.72094,-1.31737 -1.72094,-2.32751 0,-2.95093 5.23439,-13.05315 9.68525,-18.69227 6.51157,-8.24996 7.73759,-11.04255 7.75172,-17.65661 0.009,-4.07366 -0.0879,-4.60872 -1.25175,-6.93652 l -1.26118,-2.52238 -2.52238,0.0894 c -4.53741,0.16077 -9.98489,2.02104 -12.95314,4.42339 l -1.18208,0.95671 2.13891,3.0457 c 1.17641,1.67513 2.25185,3.0457 2.38988,3.0457 0.13803,0 1.44395,-0.8513 2.90205,-1.89178 1.4581,-1.04048 2.94389,-1.89178 3.30176,-1.89178 1.28744,0 2.06372,1.94311 1.81084,4.53271 -0.34996,3.58376 -2.12693,7.39838 -5.52602,11.86271 -3.66875,4.81849 -6.93484,9.65066 -8.19225,12.12039 -1.26249,2.47971 -2.55676,7.72567 -2.55676,10.36313 0,2.11182 0.96139,5.77958 1.79264,6.83907 0.55373,0.70577 4.9808,0.67088 7.72924,-0.0609 z m 20.49473,-16.14716 c 2.87296,-5.66951 4.87167,-14.85964 4.87453,-22.41323 0.004,-9.85693 -2.57266,-18.01268 -7.95651,-25.18684 -3.18875,-4.24911 -9.24463,-10.49675 -10.17459,-10.49675 -0.44966,0 -1.6066,0.73601 -2.57099,1.63558 l -1.75342,1.63557 2.55358,3.30408 c 5.34601,6.9172 9.65054,14.38156 11.48147,19.90969 0.49777,1.50292 1.21795,4.84794 1.6004,7.43339 0.84327,5.70072 0.51227,8.67259 -1.83025,16.43291 l -1.5572,5.1587 0.76806,1.70325 c 0.76788,1.70285 2.01311,2.90339 3.01147,2.90339 0.29148,0 0.99053,-0.90888 1.55345,-2.01974 l 0,0 z m -22.50734,-14.23773 2.53145,-2.80481 -1.89651,-2.13483 c -3.72598,-4.1942 -8.24041,-10.54095 -10.01922,-14.08583 -4.69763,-9.3616 -5.98476,-18.94005 -3.58219,-26.65773 l 0.89504,-2.8751 -1.09891,-1.66056 c -1.05096,-1.58812 -3.26763,-3.30442 -4.27206,-3.30775 -0.47256,-0.002 -1.82657,3.31893 -2.65647,6.51456 -0.24019,0.92487 -0.64081,3.71524 -0.89028,6.20083 -1.15643,11.52224 2.01914,24.03562 8.5579,33.72256 1.87571,2.77879 8.64874,9.89348 9.41838,9.89348 0.26478,0 1.62058,-1.26217 3.01287,-2.80482 l 0,0 z m 0.97907,-25.28393 c 2.73797,-0.90326 6.18577,-2.8482 6.49982,-3.66661 0.1225,-0.31924 0.002,-1.25035 -0.26859,-2.06915 -0.58953,-1.78627 -1.70764,-1.93781 -4.60379,-0.62396 -2.27978,1.03423 -2.78548,0.8762 -3.13356,-0.97926 -0.44389,-2.36615 1.41776,-6.91078 5.95532,-14.53803 5.01963,-8.43757 5.91933,-10.50454 6.38682,-14.67321 0.4407,-3.92966 -0.0992,-6.0189 -1.66775,-6.45335 -3.60568,-0.99872 -10.57648,0.11156 -16.08523,2.56197 l -2.00199,0.89053 1.26728,1.84192 c 0.697,1.01306 1.82256,2.23732 2.50125,2.72059 l 1.23397,0.87866 3.63095,-1.79662 c 3.52862,-1.74599 3.64784,-1.77363 4.23019,-0.98059 0.32958,0.44882 0.59923,1.7163 0.59923,2.81662 0,1.77505 -0.34845,2.53611 -3.091,6.75108 -7.13892,10.97163 -8.71216,14.66999 -8.74008,20.54606 -0.0345,7.26645 1.49188,8.68523 7.28716,6.77335 l 0,0 z"
   id="path3008"
   inkscape:connector-curvature="0" /><path
   style="fill:#ffffff;fill-opacity:1;fill-rule:evenodd;stroke:#ffffff;stroke-width:0.42039549;stroke-opacity:1"
   d="m 223.98972,283.54287 c -0.92488,-0.21553 -2.39003,-0.58191 -3.25591,-0.81418 l -1.57431,-0.42232 3.28503,-4.92402 c 3.64322,-5.4609 8.48474,-13.63048 19.61041,-33.09052 12.72346,-22.25477 21.49501,-34.53486 32.08528,-44.91909 2.22763,-2.1843 2.60756,-2.40583 3.39932,-1.98209 0.49027,0.26238 0.89139,0.52611 0.89139,0.58608 0,0.06 -0.94416,0.82904 -2.09812,1.70907 -2.24339,1.71083 -5.88939,6.22258 -5.88939,7.28783 0,0.5039 0.34352,0.5957 1.57648,0.42127 1.17403,-0.16609 2.16745,-0.79731 3.89143,-2.47263 1.27321,-1.23728 3.25958,-2.75558 4.41415,-3.37401 l 2.09921,-1.1244 2.00697,1.48745 c 1.90423,1.41132 1.99327,1.56571 1.73937,3.01619 -0.93977,5.36872 -5.22429,11.86167 -9.94944,15.07782 -1.74444,1.18734 -1.99461,1.54326 -1.99461,2.83767 0,1.70047 0.44646,1.83037 2.85117,0.82956 3.30961,-1.37742 7.44193,-6.57473 10.97129,-13.79887 0.97476,-1.9952 1.92928,-3.62765 2.12115,-3.62765 1.46328,0 1.04576,1.45472 -3.37841,11.77108 -9.517,22.19191 -12.49018,27.67209 -21.55343,39.72737 -6.45474,8.58563 -11.38643,14.62241 -13.75476,16.8369 -5.01495,4.68918 -10.65339,7.96731 -15.4286,8.97003 -2.63335,0.55296 -9.67758,0.54798 -12.06567,-0.009 l 0,0 z m 13.3403,-5.89589 c 3.77787,-1.00257 8.44454,-3.29118 12.25408,-6.00961 2.91599,-2.08081 7.5829,-6.84646 8.79671,-8.98284 0.73806,-1.29902 0.737,-1.33669 -0.0376,-1.33669 -0.43837,0 -3.33403,1.63751 -6.43479,3.63891 -6.08037,3.9246 -10.24758,6.03019 -11.93446,6.03019 -0.58312,0 -1.45496,-0.39475 -1.93744,-0.87722 -1.10224,-1.10225 -0.93219,-1.90665 1.45871,-6.9001 2.11409,-4.41533 6.13992,-9.07911 12.34568,-14.30202 2.81053,-2.36541 3.88866,-3.53852 3.88866,-4.23125 0,-1.7427 -1.47073,-1.67745 -5.33351,0.23664 -6.57477,3.25792 -12.61572,10.1334 -17.73799,20.18841 -3.06299,6.01263 -4.02483,8.60533 -4.42596,11.93044 l -0.24744,2.05114 3.04727,-0.28666 c 1.67599,-0.15766 4.51012,-0.67486 6.29807,-1.14934 l 0,0 z m 21.5693,-19.92097 c 1.37808,-0.35699 3.22015,-1.11979 4.0935,-1.69511 2.60409,-1.71545 6.75917,-8.83148 7.65229,-13.10536 0.28034,-1.34154 0.25807,-1.36629 -1.22969,-1.36629 -1.26707,0 -1.58652,0.18932 -1.95078,1.15609 -1.86124,4.93981 -4.33043,8.19211 -7.59047,9.99779 -2.08943,1.1573 -2.56742,1.24779 -6.5908,1.24779 -3.75928,0 -4.39525,0.10218 -4.76725,0.76592 -0.32575,0.58121 -0.24274,0.97523 0.34422,1.63392 1.81527,2.03706 5.50732,2.53916 10.03898,1.36525 l 0,0 z m 1.61225,-7.81139 c 0.14452,-0.72256 0.26275,-3.92786 0.26275,-7.12289 0,-5.4383 -0.0568,-5.84892 -0.88935,-6.43207 -1.06608,-0.74672 -2.70123,-0.29703 -2.64898,0.7285 0.0193,0.37814 0.0666,3.71438 0.1051,7.41386 l 0.0701,6.72633 1.41883,0 c 1.25278,0 1.44959,-0.15375 1.68158,-1.31373 z m -14.21359,-4.15141 c 0.32402,0 1.08786,-0.99318 1.69743,-2.20708 2.42843,-4.83598 7.20342,-10.35798 10.88713,-12.59034 1.92998,-1.16957 3.4485,-1.786 6.01633,-2.44225 1.62892,-0.4163 1.79914,-0.57787 1.68158,-1.59615 -0.1237,-1.07152 -0.24329,-1.12892 -2.205,-1.05827 -3.30081,0.11886 -8.17177,2.77535 -12.44943,6.7896 -3.01821,2.83234 -3.85411,3.93227 -5.55024,7.30334 -2.05472,4.08375 -2.59513,6.54107 -1.33191,6.05633 0.36574,-0.14035 0.93009,-0.25518 1.25411,-0.25518 z m 26.87801,-8.60595 c 2.63716,-1.68171 4.6592,-3.96747 5.93672,-6.71099 1.22036,-2.62077 1.27347,-3.85162 0.17855,-4.13795 -1.06269,-0.2779 -1.73914,0.30895 -3.08253,2.67423 -1.95157,3.43609 -4.7598,5.44552 -11.33555,8.11117 -1.44945,0.58758 -1.57649,0.77348 -1.57649,2.30707 0,0.94372 0.22391,1.74264 0.51564,1.83988 0.68903,0.22968 6.73402,-2.40649 9.36366,-4.08341 l 0,0 z m -2.55676,-5.52228 c 0.5697,-0.21861 0.66498,-1.26269 0.66498,-7.28685 0,-3.86743 -0.11067,-7.14235 -0.24594,-7.27762 -0.13526,-0.13526 -0.79739,-0.0537 -1.47138,0.18126 l -1.22545,0.42719 0,7.1056 c 0,6.72435 0.0433,7.1056 0.80641,7.1056 0.44352,0 1.10565,-0.11483 1.47138,-0.25518 z m -9.51806,-7.12558 c 0.51389,-0.35994 0.93434,-0.84349 0.93434,-1.07457 0,-0.85466 2.61389,-5.66697 3.70577,-6.82251 1.45542,-1.54028 3.91698,-2.79917 5.47333,-2.79917 0.67379,0 2.02936,0.28377 3.01237,0.63059 3.57271,1.26053 5.301,0.55829 4.25828,-1.73023 -0.66499,-1.45948 -2.89013,-2.26352 -6.26422,-2.26352 -3.62443,0 -6.34345,1.26354 -9.13028,4.24289 -1.93616,2.06991 -4.83881,7.536 -4.83881,9.11214 0,1.51022 1.25557,1.82062 2.84922,0.70438 z"
   id="path3010"
   inkscape:connector-curvature="0" /><path
   style="fill:#ffffff;fill-opacity:1;fill-rule:evenodd;stroke:#ffffff;stroke-width:0.42039549;stroke-opacity:1"
   d="m 321.31127,332.52957 c -0.57804,-0.10432 -2.37098,-0.49878 -3.98431,-0.8766 -14.69797,-3.442 -27.28051,-15.73541 -31.42065,-30.69865 -0.77768,-2.81071 -0.90461,-4.36927 -0.89985,-11.04958 0.005,-7.2288 0.0851,-8.03822 1.13333,-11.47654 2.35012,-7.70848 6.15602,-13.8244 12.08655,-19.42253 3.74324,-3.53344 6.80928,-5.61539 11.52203,-7.82386 6.04419,-2.8324 9.41494,-3.5005 17.65864,-3.50004 6.13424,3.5e-4 7.65296,0.13711 10.72008,0.96534 7.00398,1.89132 13.16515,5.35098 18.44711,10.35856 7.10323,6.73424 11.25636,14.34274 12.86531,23.56915 0.51526,2.9547 0.63764,7.88199 0.63764,25.67219 l 0,22.0157 -3.99376,0 -3.99375,0 0,-7.14673 c 0,-3.9307 -0.14189,-7.1368 -0.3153,-7.12468 -0.17341,0.0121 -1.26119,1.17094 -2.41727,2.57515 -4.73344,5.74933 -13.32454,11.11132 -20.80958,12.98794 -2.65075,0.66459 -5.20149,0.93062 -9.8793,1.03037 -3.46826,0.0739 -6.77887,0.0491 -7.35692,-0.0552 z m 14.08325,-2.07487 c 8.95837,-2.44697 16.95111,-9.66436 21.86103,-19.74039 3.67156,-7.53468 5.1101,-15.71934 4.38114,-24.92675 -0.48552,-6.13253 -1.77617,-10.92616 -4.38114,-16.272 -7.41637,-15.21971 -21.15715,-23.03998 -35.53865,-20.22605 -11.42957,2.23634 -21.87723,12.24673 -26.15529,25.06059 -1.90393,5.70276 -2.19722,7.80706 -2.19722,15.76484 0,7.95777 0.29329,10.06207 2.19722,15.76483 4.39388,13.16079 14.94584,23.05647 26.91138,25.23762 2.82628,0.51519 9.9461,0.15004 12.92153,-0.66269 z"
   id="path3012"
   inkscape:connector-curvature="0" /><path
   style="fill:#ffffff;fill-opacity:1;fill-rule:evenodd;stroke:#ffffff;stroke-width:0.42039549;stroke-opacity:1"
   d="m 377.22388,269.30536 0,-60.95735 4.20395,0 4.20396,0 0,60.95735 0,60.95735 -4.20396,0 -4.20395,0 0,-60.95735 z"
   id="path3014"
   inkscape:connector-curvature="0" /><path
   style="fill:#ffffff;fill-opacity:1;fill-rule:evenodd;stroke:#ffffff;stroke-width:0.42039549;stroke-opacity:1"
   d="m 431.2447,332.51176 c -6.45717,-1.03036 -14.19636,-4.28139 -19.128,-8.03518 -5.37655,-4.09243 -11.26789,-11.24371 -13.52364,-16.41583 -2.72439,-6.24665 -3.7426,-11.13375 -3.7426,-17.96331 0,-12.15886 3.7722,-21.24139 12.39991,-29.85588 8.50512,-8.49209 16.63979,-12.16927 28.04437,-12.67712 16.01575,-0.71318 30.38855,6.85904 38.4735,20.26953 l 1.26724,2.10198 -33.45627,13.6419 c -18.40095,7.50305 -34.43782,14.06946 -35.6375,14.59202 l -2.18123,0.9501 1.03808,3.9054 c 3.7852,14.24039 14.58771,25.3731 27.06604,27.89337 6.75148,1.36361 14.52908,0.0492 20.61007,-3.48295 5.74765,-3.33858 12.56599,-11.39014 15.53221,-18.34151 0.69226,-1.62232 1.02065,-1.98101 1.60264,-1.75047 0.40257,0.15948 1.77244,0.67767 3.04413,1.15154 1.2717,0.47387 2.37267,0.91219 2.4466,0.97404 0.3022,0.25281 -1.68658,3.59204 -3.8037,6.38654 -4.07832,5.38318 -9.64028,9.89784 -15.91362,12.91713 -5.85795,2.81935 -9.50001,3.6453 -16.78131,3.80568 -3.35266,0.0738 -6.66327,0.0437 -7.35692,-0.067 z m 3.83368,-47.90683 c 17.08253,-7.07682 31.49426,-13.03484 32.02607,-13.24005 l 0.96692,-0.37312 -1.90552,-3.68087 c -3.59387,-6.94222 -8.89729,-12.18685 -15.58296,-15.41023 -2.08096,-1.00329 -5.01322,-2.0845 -6.51613,-2.40267 -3.86943,-0.81918 -10.92477,-0.71432 -14.29345,0.21245 -12.70139,3.49431 -23.22703,16.23678 -25.86787,31.31596 -0.67087,3.83067 -0.86388,16.44546 -0.25163,16.44546 0.20098,0 14.34204,-5.79012 31.42457,-12.86693 z"
   id="path3016"
   inkscape:connector-curvature="0" /><path
   style="fill:#ffffff;fill-opacity:1;fill-rule:evenodd;stroke:#ffffff;stroke-width:0.42039549;stroke-opacity:1"
   d="m 584.73442,379.00061 c -18.66897,-1.65371 -35.64204,-15.22184 -41.62488,-33.27459 -1.14542,-3.45623 -2.35181,-10.04976 -2.35181,-12.85386 0,-1.73343 -0.0675,-1.84797 -0.94589,-1.60407 -6.44177,1.78874 -16.49621,1.90762 -22.80646,0.26965 -13.30719,-3.45419 -25.0088,-14.37566 -29.6742,-27.69583 -1.43047,-4.08413 -2.09575,-8.42979 -2.09378,-13.67684 0.005,-12.55186 4.00157,-21.97291 12.98848,-30.61529 8.2417,-7.92575 16.41469,-11.49376 27.4539,-11.98534 16.0158,-0.71318 30.38701,6.85817 38.47367,20.26953 l 1.26743,2.10198 -33.45645,13.64033 c -18.40105,7.50218 -34.43801,14.06858 -35.63768,14.59201 l -2.18123,0.95168 1.03807,3.9054 c 1.40197,5.27437 4.56744,11.58352 7.86795,15.68171 8.87116,11.01519 21.88185,15.31978 34.01135,11.25267 3.26542,-1.09492 3.49173,-1.24777 3.59746,-2.42962 0.54578,-6.10109 3.03895,-15.62943 4.20683,-16.07759 0.92631,-0.35546 1.01488,0.14927 0.31863,1.81564 -1.35274,3.23756 -3.48822,13.77383 -2.92217,14.41777 0.0753,0.0857 1.35492,-0.71331 2.84355,-1.77557 5.22743,-3.73022 10.23272,-10.02104 13.06024,-16.41456 0.87905,-1.9877 1.22075,-2.39034 1.82062,-2.14535 0.40615,0.16588 1.82623,0.67691 3.15574,1.13563 1.3295,0.45871 2.41727,1.01492 2.41727,1.23601 0,0.2211 -0.66847,1.44698 -1.48548,2.72419 -4.65688,7.27987 -11.11557,13.0124 -18.41548,16.34502 l -3.68341,1.68158 0.25953,3.36317 c 0.90957,11.78673 5.44744,21.73751 13.66543,29.96602 8.76377,8.77499 18.40268,13.22885 30.67918,14.17595 3.87602,0.29902 9.7439,-0.28033 13.45266,-1.32823 7.16385,-2.02411 14.6216,-7.44383 20.20939,-14.68665 l 1.71571,-2.22388 -1.65679,-2.44172 c -5.65322,-8.3315 -8.37608,-18.2573 -7.93519,-28.92663 0.30822,-7.45881 2.73645,-17.02602 4.32133,-17.02602 0.73526,0 0.73872,-0.0385 -0.2346,2.6117 -4.16824,11.34942 -3.60954,25.63983 1.42045,36.33263 1.71329,3.6421 4.27565,7.71957 4.85114,7.71957 0.54198,0 3.37984,-5.6591 4.74334,-9.4589 2.13531,-5.95069 2.6232,-9.41009 2.60875,-18.4974 -0.016,-10.06236 -0.6992,-13.53577 -3.96912,-20.17899 -2.99817,-6.09113 -6.79114,-10.24992 -12.63354,-13.85199 -4.07485,-2.51232 -8.34296,-4.12865 -15.6729,-5.93535 -3.28113,-0.80873 -7.00616,-1.87614 -8.27786,-2.37202 -6.44653,-2.51375 -10.91298,-6.25523 -13.34648,-11.18016 -1.51346,-3.06297 -1.57677,-3.36434 -1.55823,-7.41774 0.0301,-6.58847 1.99421,-11.39791 6.36491,-15.58577 3.76244,-3.60505 7.8803,-5.24787 13.13536,-5.24036 9.84651,0.0141 17.99414,7.28411 19.37551,17.28854 0.48703,3.52727 -0.1543,8.02254 -1.47215,10.31878 -0.65954,1.14918 -0.67382,1.15327 -0.46956,0.13424 0.11586,-0.57805 0.53209,-2.36615 0.92495,-3.97356 1.47533,-6.03638 -0.58732,-12.89079 -5.25294,-17.45609 -3.07204,-3.006 -6.24282,-4.59797 -10.33092,-5.18692 -2.65847,-0.38299 -3.48255,-0.34267 -5.40936,0.26471 -4.88228,1.539 -8.28226,6.28445 -9.14478,12.76361 -1.11567,8.3808 1.87525,14.75563 8.35393,17.80549 1.0905,0.51336 4.5515,1.56405 7.69112,2.33487 9.43465,2.31635 14.78144,4.53852 20.98672,8.72229 6.63426,4.47299 12.82828,12.05808 15.7977,19.3456 2.86582,7.03327 3.7532,12.73121 3.41387,21.92088 -0.43728,11.8426 -3.49052,19.64454 -11.7026,29.90364 -0.80311,1.00331 6.97621,7.43602 12.50448,10.33991 12.55755,6.59625 28.30606,6.96187 39.15931,0.90913 10.70442,-5.96974 19.11338,-17.80774 22.21299,-31.27107 0.88223,-3.832 1.25068,-15.82286 0.62157,-20.22828 -1.68562,-11.80382 -7.02772,-20.41497 -16.14599,-26.0264 -4.40347,-2.70992 -8.71972,-4.3632 -16.04446,-6.14562 -9.52692,-2.3183 -13.44335,-4.16947 -17.74548,-8.38774 -4.15122,-4.07029 -5.90374,-8.87278 -5.34608,-14.65005 0.84115,-8.71413 6.39734,-15.69593 14.43165,-18.13452 2.48287,-0.75361 7.69023,-0.75361 10.17309,0 6.62726,2.01152 12.07884,7.48693 13.84713,13.90766 0.90724,3.29419 0.7132,8.77918 -0.41372,11.69498 -1.11939,2.89631 -1.68126,2.90257 -0.69489,0.008 1.64321,-4.82255 1.09485,-11.47788 -1.28357,-15.57841 -1.75117,-3.01911 -5.63396,-6.70887 -8.38541,-7.96852 -7.77079,-3.55759 -14.93558,-1.40801 -18.20612,5.46219 -1.64467,3.45486 -2.33492,8.42478 -1.7118,12.32535 1.25667,7.86646 5.07096,11.1718 15.9801,13.84785 7.26194,1.78138 10.18482,2.77149 14.48934,4.90822 13.38975,6.64655 21.69899,17.16595 24.98726,31.63359 1.28953,5.67365 1.17353,16.8511 -0.23561,22.70136 -3.1902,13.24463 -12.07367,24.6942 -24.595,31.69956 -12.33953,6.90365 -29.51437,7.56474 -42.98054,1.65441 -4.9243,-2.16129 -8.1399,-4.29038 -13.33709,-8.83061 l -2.77074,-2.42052 -1.43321,1.49262 c -2.02894,2.11305 -7.44343,6.13875 -10.72402,7.97336 -3.07469,1.71946 -7.81549,3.55322 -11.79421,4.56205 -2.0884,0.52952 -11.93415,1.63263 -12.75682,1.42926 -0.11561,-0.0286 -1.89238,-0.20098 -3.94839,-0.3831 l 0,0 z m -59.26521,-94.39547 c 17.07934,-7.07669 31.48275,-13.03254 32.00757,-13.23522 l 0.95422,-0.3685 -1.64197,-3.26531 c -2.25766,-4.48972 -5.0953,-8.13181 -8.7955,-11.28899 -3.62142,-3.08997 -9.45632,-6.08423 -13.54174,-6.94913 -3.86943,-0.81918 -10.92477,-0.71432 -14.29344,0.21245 -9.17045,2.5229 -17.13986,9.6735 -22.073,19.80512 -2.63519,5.41212 -3.91479,10.22123 -4.32634,16.25963 -0.35615,5.22554 -0.18907,11.69667 0.302,11.69667 0.19516,0 14.32885,-5.79002 31.4082,-12.86672 z"
   id="path3018"
   inkscape:connector-curvature="0" /><path
   style="fill:#ffffff;fill-opacity:1;fill-rule:evenodd;stroke:#ffffff;stroke-width:0.42039549;stroke-opacity:1"
   d="m 719.42581,290.11494 0,-40.14778 3.99376,0 3.99376,0 0,40.14778 0,40.14777 -3.99376,0 -3.99376,0 0,-40.14777 z"
   id="path3020"
   inkscape:connector-curvature="0" /><path
   style="fill:#ffffff;fill-opacity:1;fill-rule:evenodd;stroke:#ffffff;stroke-width:0.42039549;stroke-opacity:1"
   d="m 720.45769,242.62935 c -1.3615,-1.3615 -1.47615,-4.82977 -0.20178,-6.10415 2.63268,-2.63268 7.15742,-0.77073 7.15742,2.94531 0,3.64468 -4.44922,5.66526 -6.95564,3.15884 z"
   id="path3022"
   inkscape:connector-curvature="0" /></svg>