<?xml version="1.0" encoding="utf-8"?>
<!-- Generator: Adobe Illustrator 16.0.0, SVG Export Plug-In . SVG Version: 6.00 Build 0)  -->
<!DOCTYPE svg PUBLIC "-//W3C//DTD SVG 1.1//EN" "http://www.w3.org/Graphics/SVG/1.1/DTD/svg11.dtd">
<svg version="1.1" id="Calque_1" xmlns="http://www.w3.org/2000/svg" xmlns:xlink="http://www.w3.org/1999/xlink" x="0px" y="0px"
	 width="841.89px" height="595.28px" viewBox="0 0 841.89 595.28" enable-background="new 0 0 841.89 595.28" xml:space="preserve">
<path fill="#E61B72" d="M334.786,295.752c0,64.023-51.896,115.92-115.923,115.92c-64.022,0-115.92-51.897-115.92-115.92
	s51.898-115.92,115.92-115.92C282.889,179.832,334.786,231.729,334.786,295.752z"/>
<g>
	<path fill="#1D1D1B" d="M370.352,330.285h-8.649v-14.059c-8.59,11.249-19.992,16.877-34.227,16.877
		c-11.812,0-21.954-4.223-30.42-12.654c-8.451-8.437-12.665-18.554-12.665-30.33c0-11.927,4.203-22.064,12.65-30.436
		c8.436-8.374,18.534-12.555,30.321-12.555c11.917,0,22.064,4.181,30.429,12.555c8.363,8.372,12.561,18.509,12.561,30.436V330.285z
		 M361.703,290.119c0-11.389-3.344-21.104-10.03-29.135c-6.701-8.033-14.807-12.055-24.311-12.055
		c-9.375,0-17.411,4.021-24.091,12.055c-6.706,8.031-10.052,17.746-10.052,29.135c0,11.376,3.346,21.096,10.052,29.122
		c6.681,8.039,14.717,12.051,24.091,12.051c9.504,0,17.609-4.012,24.311-12.051C358.358,311.215,361.703,301.495,361.703,290.119z"
		/>
	<path fill="#1D1D1B" d="M385.809,330.285h-8.632V208.156h8.632V330.285z"/>
	<path fill="#1D1D1B" d="M475.781,309.4c-3.616,7.101-8.832,12.82-15.659,17.173c-6.825,4.353-14.396,6.53-22.697,6.53
		c-11.79,0-21.893-4.223-30.323-12.654c-8.432-8.437-12.655-18.554-12.655-30.33c0-11.927,4.223-22.064,12.655-30.436
		c8.431-8.374,18.533-12.555,30.323-12.555c8.166,0,15.625,2.075,22.397,6.225c6.762,4.153,11.937,9.716,15.578,16.67
		l-71.314,29.127c1.736,9.246,5.724,16.91,11.944,23.007c6.234,6.09,13.362,9.135,21.395,9.135c6.958,0,13.228-2.229,18.775-6.731
		c5.559-4.483,9.746-10.416,12.56-17.78L475.781,309.4z M467.751,270.833c-2.814-6.698-6.926-12.02-12.343-15.977
		c-5.432-3.948-11.427-5.926-17.983-5.926c-9.367,0-17.414,4.021-24.104,12.055c-6.692,8.031-10.036,17.746-10.036,29.135
		c0,1.603,0.125,4.012,0.391,7.228L467.751,270.833z"/>
	<path fill="#1D1D1B" d="M566.172,309.4c-3.611,7.101-8.836,12.82-15.673,17.173c-6.815,4.353-14.387,6.53-22.696,6.53
		c-11.787,0-21.889-4.223-30.33-12.654c-8.426-8.437-12.641-18.554-12.641-30.33c0-11.927,4.215-22.064,12.641-30.436
		c8.441-8.374,18.543-12.555,30.33-12.555c8.181,0,15.629,2.075,22.405,6.225c6.751,4.153,11.952,9.716,15.574,16.67l-71.314,29.127
		c1.745,9.246,5.722,16.91,11.948,23.007c6.215,6.09,13.356,9.135,21.387,9.135c6.978,0,13.226-2.229,18.773-6.731
		c5.566-4.483,9.762-10.416,12.561-17.78L566.172,309.4z M558.146,270.833c-2.813-6.698-6.936-12.02-12.357-15.977
		c-5.426-3.948-11.422-5.926-17.986-5.926c-9.37,0-17.41,4.021-24.1,12.055c-6.702,8.031-10.044,17.746-10.044,29.135
		c0,1.603,0.131,4.012,0.406,7.228L558.146,270.833z"/>
	<path fill="#1D1D1B" d="M639.092,330.285c0,13.663-4.819,25.277-14.461,34.858c-9.644,9.57-21.287,14.362-34.949,14.362
		c-13.516,0-25.109-4.792-34.759-14.362c-9.634-9.581-14.458-21.195-14.458-34.858c0-6.961,1.342-13.453,4.021-19.481l1.608,0.603
		c-2.544,6.163-3.822,12.458-3.822,18.879c0,13.13,4.65,24.341,13.975,33.651c9.284,9.304,20.438,13.968,33.435,13.968
		c11.251,0,20.82-4.664,28.714-13.968c7.906-9.311,11.858-20.521,11.858-33.651c0-22.62-11.381-36.091-34.147-40.363
		c-6.832-1.348-12.248-3.926-16.281-7.744c-4.012-3.813-5.893-8.534-5.618-14.161c0.263-5.621,2.284-10.378,6.029-14.263
		c3.747-3.88,8.379-5.825,13.868-5.825c5.482,0,10.174,1.973,14.056,5.923c3.887,3.953,5.832,8.683,5.832,14.165
		c0,3.212-0.751,6.294-2.222,9.241l-1.003-0.604c1.34-2.545,2.017-5.425,2.017-8.637c0-5.091-1.813-9.473-5.428-13.161
		c-3.62-3.677-7.903-5.521-12.859-5.521c-3.347,0-6.224,1.477-8.638,4.419c-2.413,2.945-3.611,6.964-3.611,12.051
		c0,8.976,4.937,14.395,14.872,16.274c12.719,2.415,22.751,7.636,30.124,15.667C635.14,306.18,639.092,317.033,639.092,330.285z"/>
	<path fill="#1D1D1B" d="M710.605,330.285c0,13.663-4.825,25.277-14.454,34.858c-9.656,9.57-21.296,14.362-34.96,14.362
		c-13.527,0-25.109-4.792-34.759-14.362c-9.646-9.581-14.451-21.195-14.451-34.858c0-6.961,1.335-13.453,4.012-19.481l1.611,0.603
		c-2.552,6.163-3.831,12.458-3.831,18.879c0,13.13,4.669,24.341,13.972,33.651c9.307,9.304,20.456,13.968,33.446,13.968
		c11.25,0,20.82-4.664,28.725-13.968c7.906-9.311,11.848-20.521,11.848-33.651c0-22.62-11.38-36.091-34.147-40.363
		c-6.825-1.348-12.247-3.926-16.271-7.744c-4.011-3.813-5.894-8.534-5.626-14.161c0.27-5.621,2.282-10.378,6.028-14.263
		c3.747-3.88,8.37-5.825,13.858-5.825c5.492,0,10.182,1.973,14.075,5.923c3.877,3.953,5.822,8.683,5.822,14.165
		c0,3.212-0.753,6.294-2.223,9.241l-1.004-0.604c1.341-2.545,2.018-5.425,2.018-8.637c0-5.091-1.806-9.473-5.428-13.161
		c-3.621-3.677-7.894-5.521-12.851-5.521c-3.354,0-6.235,1.477-8.637,4.419c-2.412,2.945-3.63,6.964-3.63,12.051
		c0,8.976,4.955,14.395,14.869,16.274c12.735,2.415,22.769,7.636,30.146,15.667C706.657,306.18,710.605,317.033,710.605,330.285z"/>
	<path fill="#1D1D1B" d="M727.674,239.493c0,2.952-1.539,4.413-4.608,4.413c-2.679,0-4.028-1.461-4.028-4.413
		c0-2.942,1.35-4.415,4.028-4.415C726.135,235.078,727.674,236.55,727.674,239.493z M727.674,330.285h-8.637v-80.35h8.637V330.285z"
		/>
</g>
<g>
	<path fill="#1D1D1B" d="M289.017,386.419c-4.886,0-9.374-1.29-13.459-3.87c-5.4-3.996-8.1-7.909-8.1-11.74l3.833,0.25
		c3.863,6.912,9.336,10.741,16.415,11.49c3.356,0,6.638-1.582,9.85-4.745c0.711,0.105,1.3,0.274,1.835,0.472
		c0.818-0.813,1.611-1.653,2.406-2.492c-3.151-1.555-7.182-3.376-12.12-5.475c0-0.75,0.017-1.723,0.054-2.932
		c0.034-1.209,0.166-2.018,0.382-2.436c5.807,0.739,11.299,2.576,16.486,5.484c1.768-2.107,3.453-4.283,5.069-6.518
		c-1.474-1.758-2.922-3.483-4.318-5.15c-9.522-11.364-19.152-21.688-28.892-30.971c-9.741-9.28-20.597-16.876-32.563-22.789
		c-11.969-5.91-24.915-8.865-38.852-8.865c-2.843,0-4.96,0.083-6.347,0.25c-1.459,0.333-2.882,0.499-4.268,0.499l-1.532-111.265
		l-11.039,0.073c-3.971,1.226-7.846,2.668-11.621,4.295h18.173c1.019,3.417,1.53,8.703,1.53,15.861
		c-0.656,3.081-1.221,5.954-1.695,8.617c-0.477,2.665-1.04,5.141-1.696,7.429c-0.656,2.292-1.532,4.349-2.625,6.181h-0.221
		c-2.405-1.746-3.756-3.246-4.047-4.495c2.407-7.242,3.611-13.57,3.611-18.982c0-2.828-0.292-5.118-0.876-6.866
		c-4.088-0.831-10.362-1.249-18.825-1.249h-6.105c-2.411,1.417-4.77,2.916-7.067,4.5c0.896,2.478,2.649,5.219,5.294,8.237
		c3.281,3.748,5.143,6.038,5.579,6.871c-0.436,0.916-0.839,1.768-1.202,2.558c-0.367,0.794-0.915,1.23-1.641,1.312
		c-2.408-1.417-4.322-2.642-5.749-3.686c-1.418-1.035-2.991-2.39-4.704-4.057c-1.716-1.664-3.048-3.453-3.994-5.37
		c-0.124-0.283-0.23-0.542-0.346-0.817c-2.265,1.818-4.455,3.72-6.575,5.7l-0.161,168.766c2.836,2.659,5.8,5.18,8.891,7.547
		c1.119-4.12,2.556-7.461,4.319-9.99l3.611,1.998c0.438,0.749,0.658,1.334,0.658,1.752c-1.584,3.318-2.688,6.671-3.344,10.047
		c2.581,1.754,5.248,3.386,7.97,4.933c0.285-3.404,1.057-6.473,2.378-9.176c1.603-3.285,3.992-6.932,7.166-10.923
		c3.173-4,5.307-6.872,6.404-8.618c-0.22-0.83-0.73-1.54-1.533-2.125l-9.192,2.875c-0.436-0.251-0.97-0.542-1.586-0.875
		c-0.623-0.334-1.134-0.751-1.531-1.251c-0.406-0.494-0.714-1.079-0.931-1.745c0.363-1.167,0.728-1.749,1.092-1.749
		c6.275-4.079,11.673-6.121,16.198-6.121c1.387,0,2.626,0.251,3.721,0.75c0.658,1.748,0.985,3.706,0.985,5.869
		c0,3.414-0.749,6.474-2.241,9.18c-1.498,2.707-3.907,6.18-7.225,10.427c-3.323,4.243-5.489,7.326-6.512,9.239
		c-0.437,0.749-0.655,1.792-0.655,3.125c0,1,0.218,1.498,0.655,1.498c1.46,0,3.12-0.331,4.981-1c1.86-0.665,3.119-1.081,3.775-1.247
		c1.97,1.083,2.955,2.454,2.955,4.121c-2.323,1.622-4.741,2.794-7.243,3.546c2.711,1.155,5.489,2.188,8.301,3.14
		c1.396-0.358,2.694-0.797,3.865-1.317c-0.146,0-0.073-0.623,0.22-1.874c-0.729-5.494-4.233-10.448-10.505-14.862
		c2.187-2.497,3.83-3.744,4.923-3.744c1.167,0.334,2.206,0.982,3.122,1.937c0.908,0.958,2.24,2.52,3.992,4.683
		c3.284,5.243,4.924,10.948,4.924,17.104c0,0.329-0.038,0.712-0.056,1.066c1.578,0.373,3.167,0.718,4.772,1.021l0.208-108.23
		c1.165-0.829,2.518-1.251,4.048-1.251c2.409,0,5.181,1.042,8.319,3.122c7.223,7.326,17.017,19.715,29.382,37.15
		c12.368,17.443,21.818,30.243,28.349,38.401c3.977,4.969,8.745,9.734,14.277,14.305c3.31-2.149,6.507-4.455,9.571-6.919
		C289.85,386.343,289.397,386.377,289.017,386.419z M189.969,245.057c1.754,4.83,2.628,9.949,2.628,15.358
		c0,4.248-0.51,8.476-1.531,12.677c-1.023,4.207-2.446,7.889-4.27,11.05c-0.292,0.335-0.584,0.501-0.874,0.501
		c-0.657,0-1.351-0.624-2.079-1.872c-0.731-1.248-1.095-2.248-1.095-2.998c0.802-2.416,1.588-4.85,2.351-7.306
		c0.769-2.455,1.26-5.057,1.479-7.806c0-6.91-1.443-13.256-4.323-19.043c-2.882-5.785-6.805-11.634-11.766-17.546
		c0.511-0.498,1.131-1.122,1.862-1.871c0.729-0.751,1.533-1.207,2.408-1.375C182.785,232.07,187.856,238.813,189.969,245.057z
		 M163.487,293.384c0.584,0.334,1.02,0.499,1.313,0.499c0.874,0,2.261-0.562,4.158-1.686c1.898-1.125,2.99-1.684,3.284-1.684
		c1.968,0.664,2.954,1.29,2.954,1.873c0,0.333-0.109,0.857-0.328,1.561c-0.218,0.708-0.327,1.104-0.327,1.188
		c-3.503,2.915-7.844,4.368-13.024,4.368h-0.876c-0.585-0.167-0.988-0.478-1.204-0.938c-0.219-0.453-0.512-1.287-0.875-2.497
		c-0.366-1.205-0.585-1.934-0.657-2.185c0-5.161,1.093-9.573,3.282-13.236c2.192-3.662,5.729-8.617,10.618-14.861
		c1.822-3.994,2.737-6.908,2.737-8.739c0-1.418-0.331-2.54-0.986-3.374c-0.146-0.499-0.73-0.75-1.75-0.75l-5.802,4.124l-4.267-6.119
		c4.523-3.58,9.885-5.371,16.087-5.371c1.605,2.249,2.59,4.871,2.955,7.866c0,4.746-0.802,8.515-2.407,11.304
		c-1.605,2.791-4.378,6.513-8.319,11.176c-0.364,0.835-1.625,3.122-3.773,6.869c-2.153,3.747-3.229,6.574-3.229,8.492
		C163.049,292.011,163.193,292.719,163.487,293.384z M160.804,228.199c1.207-2.749,3.156-6.14,5.855-10.177
		c2.7-4.037,4.196-6.307,4.488-6.805c0-3.416-0.439-5.372-1.314-5.872l-7.66,3.622c-1.826-1.332-3.323-3.036-4.487-5.122
		c5.76-2.579,10.249-3.87,13.46-3.87c1.752,0,3.393,0.25,4.923,0.75c0.729,0.833,1.094,1.873,1.094,3.12
		c0,2.999-0.4,5.538-1.203,7.619c-0.802,2.081-2.263,4.806-4.378,8.178c-2.115,3.373-3.648,5.914-4.596,7.619
		c-0.947,1.709-1.823,4.058-2.626,7.056c0,2.498,0.402,3.746,1.204,3.746c0.583,0,1.496-0.331,2.737-0.998
		c1.239-0.667,2.115-1,2.626-1c0.29,0,0.583,0.167,0.875,0.5c0.583,0.666,0.875,1.708,0.875,3.123
		c-3.721,2.832-7.367,4.244-10.943,4.244c-0.802-0.33-1.312-0.623-1.532-0.873c-0.22-0.248-0.475-0.875-0.767-1.872
		c-0.292-2-0.439-3.374-0.439-4.122C158.998,233.901,159.601,230.944,160.804,228.199z M147.618,215.336
		c1.677,0,3.463,1.542,5.363,4.621c-1.461,4.745-2.227,7.743-2.301,8.991c0,5.243,0.768,10.075,2.301,14.486
		c1.53,4.412,3.5,8.349,5.91,11.801c2.407,3.458,5.289,6.973,8.645,10.551l-4.487,4.996c-0.074,0.083-0.165,0.188-0.275,0.311
		c-0.11,0.128-0.236,0.232-0.382,0.314c-4.89-3.996-8.683-8.368-11.381-13.114c-4.524-7.99-6.785-16.856-6.785-26.595
		C144.225,225.369,145.355,219.917,147.618,215.336z M143.13,287.266c0-3.913,0.655-7.992,1.971-12.24
		c1.313-4.244,2.954-7.697,4.925-10.364c1.021,0.417,1.876,1.167,2.573,2.25c0.691,1.08,1.038,2.289,1.038,3.622
		c-2.263,3.579-3.466,6.824-3.611,9.74c0,14.067,3.756,24.642,11.272,31.719c0.583,1,1.677,2.31,3.284,3.933
		c1.602,1.623,2.588,3.059,2.955,4.31c-0.658,0.749-1.078,1.374-1.258,1.874c-0.183,0.497-0.347,0.789-0.491,0.875
		c-0.15,0.08-0.622,0.247-1.425,0.494c-6.274-5.908-11.038-11.005-14.28-15.293c-3.249-4.289-5.347-9.222-6.295-14.8
		C143.349,291.556,143.13,289.514,143.13,287.266z M166.66,375.181c-0.585,1.247-1.495,2.79-2.736,4.622h-0.875
		c-3.356-1.501-6.42-4.065-9.195-7.682c-2.773-3.623-5.141-7.64-7.111-12.052c-1.532-4.33-2.298-9.199-2.298-14.609
		c0-9.992,2.552-18.734,7.661-26.229c2.479,0.503,4.048,1.752,4.706,3.752c-3.065,3.913-5.109,9.736-6.131,17.48
		c0,7.661,1.44,14.218,4.327,19.67C157.885,365.584,161.771,370.603,166.66,375.181z M177.823,348.331
		c-2.993,2.251-5.856,4.041-8.589,5.368c-2.739,1.335-5.676,1.999-8.81,1.999c-0.513-0.163-0.86-0.752-1.039-1.748
		c-0.186-0.999-0.313-1.578-0.387-1.749c0-6.494,1.097-12.257,3.284-17.294c2.189-5.037,5.364-9.928,9.522-14.673
		c1.97-3.33,2.955-6.159,2.955-8.494c0-0.999-0.256-1.748-0.767-2.246c-0.729,0-1.934,0.456-3.612,1.376
		c-1.678,0.916-2.775,1.37-3.282,1.37c-0.586,0-1.096-0.248-1.534-0.75c-0.509-0.162-0.765-0.996-0.765-2.494
		c2.479-1.831,4.595-3.267,6.348-4.308c1.752-1.042,3.682-1.563,5.8-1.563c0.437,0.248,0.784,0.708,1.04,1.373
		c0.254,0.665,0.601,1.458,1.038,2.372c0.586,1.92,0.876,3.958,0.876,6.122c0,2.995-0.639,5.765-1.915,8.301
		c-1.279,2.544-3.009,5.31-5.199,8.306c-2.188,3-3.94,5.682-5.252,8.055c-1.313,2.37-1.971,4.891-1.971,7.553
		c0,1.583,0.366,2.376,1.095,2.376c1.022,0,2.826-0.628,5.418-1.875c2.587-1.25,4.213-1.915,4.87-1.996
		c0.875,0.996,1.314,2.125,1.314,3.372C178.262,347.582,178.115,348,177.823,348.331z M190.846,386.669
		c-0.729,0.666-1.387,0.996-1.971,0.996c-1.458-2.163-2.28-3.535-2.46-4.117c-0.186-0.584-0.273-1.748-0.273-3.5
		c1.166-3.658,1.75-7.822,1.75-12.486c0-11.988-4.379-23.688-13.133-35.089c0.656-0.832,1.274-1.645,1.862-2.438
		c0.581-0.787,1.275-1.185,2.079-1.185c1.313,0.996,2.917,2.791,4.813,5.37c1.898,2.584,3.541,4.663,4.927,6.244
		c3.72,7.825,5.58,16.567,5.58,26.223C194.02,373.432,192.96,380.092,190.846,386.669z M192.817,335.591
		c-1.461,0-2.428-0.099-2.902-0.311c-0.476-0.206-0.82-0.561-1.04-1.061c-0.219-0.5-0.766-1.83-1.641-3.997
		c0.583-2.329,0.875-5.164,0.875-8.49c0-2.916-0.328-6.163-0.983-9.74c-0.658-3.582-1.569-6.972-2.737-10.18
		c-1.168-3.205-2.7-6.324-4.597-9.365c-1.897-3.036-3.978-5.64-6.238-7.805c-0.51-0.582-1.077-1.185-1.695-1.811
		c-0.621-0.624-0.931-1.391-0.931-2.308c0.364-0.416,0.747-0.876,1.149-1.375c0.4-0.497,0.822-0.937,1.259-1.312
		c0.438-0.373,0.91-0.561,1.422-0.561l4.706,5.37c4.305,5.163,7.916,11.346,10.834,18.547c2.917,7.201,4.378,14.377,4.378,21.536
		C194.677,327.725,194.057,332.015,192.817,335.591z M284.967,377.804c-1.24,0-2.259-0.879-3.063-2.623l-0.329-19.23h2.736
		l1.313,21.227C285.259,377.595,285.041,377.804,284.967,377.804z M285.789,346.335c3.395,0.665,6.733,1.915,10.015,3.744
		c6.201,5.163,9.558,10.364,10.067,15.611c-1.093,0-2.445-0.439-4.047-1.313c-1.607-0.875-2.592-1.599-2.956-2.187
		c-1.827-3.746-3.758-6.325-5.801-7.741c-2.042-1.415-5.309-2.537-9.794-3.37c-4.489-0.833-8.483-1.745-11.983-2.748
		c0-2.081,0.291-3.457,0.875-4.121C277.855,344.959,282.397,345.668,285.789,346.335z M269.756,324.355
		c7.878,5.327,11.819,10.948,11.819,16.858c-0.437,0.497-0.875,0.749-1.313,0.749c-0.366,0-0.876-0.252-1.532-0.749
		c-3.137-7.744-8.356-12.446-15.652-14.113c-1.53,0.084-2.863,0.544-3.997,1.376c-1.131,0.833-2.278,2.038-3.444,3.618
		c-1.169,1.587-2.008,2.667-2.518,3.247c-1.095,0-2.042-0.455-2.846-1.371c0-1.665,0.383-3.143,1.147-4.434
		c0.769-1.29,2.244-3.391,4.435-6.307c1.752-1,3.759-1.498,6.021-1.498C264.793,321.732,267.42,322.605,269.756,324.355z
		 M268.006,357.071c-0.073,0.084-0.165,0.168-0.273,0.251c-0.112,0.084-0.203,0.167-0.276,0.247l-3.064-1.871l-2.518-24.472
		c0.877-0.503,1.641-0.754,2.297-0.754c0.804,0,1.607,0.669,2.41,2L268.006,357.071z M227.179,318.983
		c-5.399-8.155-9.374-13.649-11.929-16.485c1.313-0.996,3.355-1.498,6.13-1.498c3.721,0,8.352,1.167,13.895,3.498
		c5.546,2.334,10.583,4.896,15.107,7.682c4.523,2.791,7.077,4.683,7.659,5.683l-4.923,2.372c-2.921-2.084-5.089-3.561-6.513-4.435
		c-1.42-0.873-3.339-1.434-5.746-1.687c-0.805-0.58-1.644-0.873-2.518-0.873c-1.093,0-2.009,0.5-2.736,1.5
		c-0.73,0.996-1.095,2.122-1.095,3.369c0,4.746,3.266,9.807,9.798,15.175c6.528,5.37,11.509,8.427,14.939,9.176
		c0,0.666-0.167,1.563-0.491,2.688c-0.332,1.121-0.859,1.769-1.588,1.936c-6.056-1.747-11.22-4.828-15.487-9.241
		C237.41,333.432,232.579,327.143,227.179,318.983z M246.661,347.083c0.292-0.334,0.655-0.501,1.095-0.501
		c0.51,0,1.184,0.125,2.026,0.372c0.836,0.255,1.22,0.373,1.147,0.373c1.677,3.669,3.941,6.498,6.786,8.498
		c2.847,1.996,5.71,3.434,8.594,4.309c2.882,0.875,6.877,1.894,11.985,3.059c-0.076,0.831-0.166,1.685-0.275,2.557
		c-0.109,0.878-0.385,1.646-0.821,2.313h-6.784C259.904,366.232,251.987,359.238,246.661,347.083z"/>
	<path fill="#1D1D1B" d="M247.644,234.006c-3.137,5.455-7.679,13.423-13.625,23.912c-5.949,10.49-10.998,18.651-15.155,24.478
		c3.792,1.332,7.693,1.997,11.708,1.997c5.18,0,9.885-1.372,14.12-4.119c4.232-2.75,7.88-5.995,10.946-9.74
		c3.063-3.748,7.698-9.784,13.901-18.106c2.99-4.164,5.746-8.785,8.262-13.863c2.519-5.078,4.963-10.427,7.331-16.045
		c2.047-4.854,4.241-10.001,6.558-15.41c-0.631-0.524-1.285-1.02-1.929-1.53c-1.161,3.083-2.83,6.398-5.009,9.946
		c-3.502,5.704-6.935,8.554-10.288,8.554v-2.374c0.365-0.582,1.168-1.225,2.407-1.936c1.239-0.705,2.08-1.311,2.517-1.808
		c2.625-3,4.523-5.788,5.688-8.369c0.838-1.849,1.364-3.989,1.602-6.4c-1.401-1.036-2.823-2.047-4.271-3.02
		c-4.097,1.915-6.978,4.137-8.599,6.673c-0.368,0-0.767,0.105-1.205,0.311c-0.438,0.211-0.803,0.315-1.095,0.315
		c-0.583,0-0.947-0.208-1.092-0.626c2.168-3.572,5.014-6.53,8.494-8.917c-0.723-0.45-1.455-0.891-2.191-1.324
		c-0.17,0.13-0.333,0.243-0.504,0.376c-6.421,6.16-12.006,12.508-16.747,19.042C254.723,222.561,250.782,228.555,247.644,234.006z
		 M245.349,242.309c0.583-1.25,1.604-3.164,3.063-5.744c6.275-7.157,12.112-10.738,17.515-10.738
		c0.437,0.249,0.656,0.666,0.656,1.249c0,0.415-0.219,0.748-0.656,0.996c-4.015,0.585-7.664,2.417-10.948,5.498
		c-3.283,3.078-5.983,6.993-8.101,11.736c-0.363,0.085-0.749,0.191-1.148,0.313c-0.402,0.127-0.82,0.27-1.259,0.437
		C244.471,244.81,244.763,243.558,245.349,242.309z M260.562,237.814l-0.219,13.114c-0.438,0.166-1.35,0.249-2.735,0.249
		l-0.221-14.611c0.293-0.333,0.767-0.5,1.425-0.5C259.76,236.066,260.342,236.647,260.562,237.814z M246.936,273.218
		c-5.805,3.706-12.026,5.558-18.663,5.558c0.072-2.665,0.563-5.078,1.476-7.247c0.911-2.161,2.281-5.035,4.106-8.614
		c6.493-11.24,13.39-17.733,20.688-19.48c0.727,0.249,1.095,0.707,1.095,1.375c0,0.415-0.368,0.915-1.095,1.497
		c-4.815,3.83-8.594,7.304-11.329,10.427c-2.738,3.121-4.799,7.138-6.184,12.049c0.143,1.083,0.874,1.959,2.187,2.624
		c2.773-0.25,6.475-1.976,11.11-5.182c4.634-3.203,7.462-4.809,8.485-4.809C256.694,265.581,252.736,269.515,246.936,273.218z
		 M265.927,252.427c-1.901,3.911-6.313,5.866-13.248,5.866c-1.166-0.499-2.061-0.893-2.679-1.187c-0.622-0.29-1.15-0.81-1.588-1.56
		c0.22-1.082,0.474-1.622,0.767-1.622c0.729,0,1.603,0.081,2.626,0.249c1.021,0.168,1.859,0.251,2.517,0.251
		c6.276,0,10.838-4.165,13.685-12.489c0.509-0.081,0.965-0.146,1.366-0.187c0.401-0.042,0.822-0.061,1.263-0.061
		C270.266,245.101,268.698,248.678,265.927,252.427z M277.199,227.574c0.071-0.252,0.165-0.438,0.272-0.561
		c0.112-0.128,0.238-0.23,0.384-0.312c0.146-0.084,0.364-0.208,0.658-0.375c1.021,0,1.53,0.417,1.53,1.248
		c-1.021,3.58-2.844,6.37-5.471,8.366c-2.626,1.998-6.094,3.748-10.399,5.248c-0.289,0-0.474-0.146-0.546-0.437
		c-0.074-0.29-0.11-1.269-0.11-2.937c3.431-1.082,6.276-2.373,8.539-3.87C274.316,232.444,276.03,230.321,277.199,227.574z
		 M268.662,231.698V217.96c0.071,0,0.384-0.146,0.928-0.438c0.551-0.291,0.896-0.439,1.044-0.439c0.437,0,0.655,0.292,0.655,0.876
		l-0.219,13.235C270.486,231.529,269.683,231.698,268.662,231.698z M266.583,211.965c1.604-0.999,3.464-1.498,5.582-1.498
		c2.626,0,4.596,0.583,5.911,1.747c0.438,0.582,0.656,1.208,0.656,1.873c-0.366,0.667-0.876,1-1.532,1
		c-0.367,0-1.203-0.251-2.519-0.75c-1.313-0.499-2.445-0.748-3.39-0.748c-2.044,0-4.124,1.082-6.239,3.246
		c-1.094,1.333-2.226,3.579-3.395,6.743c-0.655,1-1.387,1.5-2.188,1.5c-0.729,0-1.094-0.5-1.094-1.5
		C260.051,218.167,262.789,214.295,266.583,211.965z"/>
</g>
</svg>
