<?xml version="1.0" encoding="UTF-8" standalone="no"?>
<!-- Created with Inkscape (http://www.inkscape.org/) -->

<svg
   xmlns:dc="http://purl.org/dc/elements/1.1/"
   xmlns:cc="http://creativecommons.org/ns#"
   xmlns:rdf="http://www.w3.org/1999/02/22-rdf-syntax-ns#"
   xmlns:svg="http://www.w3.org/2000/svg"
   xmlns="http://www.w3.org/2000/svg"
   xmlns:sodipodi="http://sodipodi.sourceforge.net/DTD/sodipodi-0.dtd"
   xmlns:inkscape="http://www.inkscape.org/namespaces/inkscape"
   id="svg2"
   version="1.1"
   inkscape:version="0.48.3.1 r9886"
   width="425.2"
   height="531.5"
   xml:space="preserve"
   sodipodi:docname="logo gdp text.ai"><metadata
     id="metadata8"><rdf:RDF><cc:Work
         rdf:about=""><dc:format>image/svg+xml</dc:format><dc:type
           rdf:resource="http://purl.org/dc/dcmitype/StillImage" /><dc:title></dc:title></cc:Work></rdf:RDF></metadata><defs
     id="defs6"><clipPath
       clipPathUnits="userSpaceOnUse"
       id="clipPath16"><path
         d="m 0,425.2 340.16,0 L 340.16,0 0,0 0,425.2 z"
         id="path18" /></clipPath></defs><sodipodi:namedview
     pagecolor="#ffffff"
     bordercolor="#666666"
     borderopacity="1"
     objecttolerance="10"
     gridtolerance="10"
     guidetolerance="10"
     inkscape:pageopacity="0"
     inkscape:pageshadow="2"
     inkscape:window-width="640"
     inkscape:window-height="480"
     id="namedview4"
     showgrid="false"
     inkscape:zoom="0.44402634"
     inkscape:cx="212.60001"
     inkscape:cy="265.75"
     inkscape:window-x="0"
     inkscape:window-y="27"
     inkscape:window-maximized="0"
     inkscape:current-layer="g10" /><g
     id="g10"
     inkscape:groupmode="layer"
     inkscape:label="logo gdp text"
     transform="matrix(1.25,0,0,-1.25,0,531.5)"><g
       id="g12"><g
         id="g14"
         clip-path="url(#clipPath16)"><g
           id="g20"
           transform="translate(57.9819,200.1045)"><path
             d="m 0,0 0,10.188 -7.065,0 0,-4.583 2.272,0 0,-5.931 c 0,-2.293 -1.004,-3.119 -2.603,-3.119 -1.619,0 -2.618,0.826 -2.618,3.119 l 0,17.368 c 0,2.284 0.999,3.153 2.618,3.153 1.599,0 2.603,-0.869 2.603,-3.153 l 0,-3.444 4.793,0 0,3.115 c 0,5.133 -2.577,8.085 -7.528,8.085 -4.974,0 -7.538,-2.952 -7.538,-8.085 l 0,-16.713 c 0,-5.143 2.564,-8.088 7.538,-8.088 C -2.577,-8.088 0,-5.143 0,0"
             style="fill:#231f20;fill-opacity:1;fill-rule:nonzero;stroke:none"
             id="path22" /></g><g
           id="g24"
           transform="translate(92.4966,202.583)"><path
             d="M 0,0 -4.878,0 -2.437,16.244 0,0 z m -5.889,21.943 -5.139,-32.144 4.638,0 0.879,5.84 6.191,0 0.872,-5.84 5.087,0 -5.129,32.144 -7.399,0 z"
             style="fill:#231f20;fill-opacity:1;fill-rule:nonzero;stroke:none"
             id="path26" /></g><g
           id="g28"
           transform="translate(134.478,224.5259)"><path
             d="m 0,0 0,-32.144 13.766,0 0,4.607 -8.712,0 0,9.399 6.926,0 0,4.605 -6.926,0 0,8.961 8.712,0 0,4.572 L 0,0 z"
             style="fill:#231f20;fill-opacity:1;fill-rule:nonzero;stroke:none"
             id="path30" /></g><g
           id="g32"
           transform="translate(161.7812,201.8682)"><path
             d="m 0,0 -1.625,0 0,13.17 1.625,0 c 0.927,0 1.486,-0.47 1.486,-1.783 l 0,-9.594 C 1.486,0.486 0.927,0 0,0 m 4.375,11.255 c 0,2.95 -1.423,4.55 -4.313,4.55 l -4.584,0 0,-18.424 4.584,0 c 2.89,0 4.313,1.592 4.313,4.551 l 0,9.323 z"
             style="fill:#231f20;fill-opacity:1;fill-rule:nonzero;stroke:none"
             id="path34" /></g><g
           id="g36"
           transform="translate(175.8936,199.249)"><path
             d="m 0,0 0,2.619 -5,0 0,5.404 3.989,0 0,2.633 -3.989,0 0,5.134 5,0 0,2.634 -7.894,0 L -7.894,0 0,0 z"
             style="fill:#231f20;fill-opacity:1;fill-rule:nonzero;stroke:none"
             id="path38" /></g><g
           id="g40"
           transform="translate(203.7666,224.5259)"><path
             d="m 0,0 0,-32.144 13.363,0 0,4.607 -8.313,0 L 5.05,0 0,0 z"
             style="fill:#231f20;fill-opacity:1;fill-rule:nonzero;stroke:none"
             id="path42" /></g><g
           id="g44"
           transform="translate(230.665,202.583)"><path
             d="M 0,0 -4.866,0 -2.437,16.244 0,0 z m -5.868,21.943 -5.153,-32.144 4.655,0 0.853,5.84 6.198,0 0.879,-5.84 5.104,0 -5.155,32.144 -7.381,0 z"
             style="fill:#231f20;fill-opacity:1;fill-rule:nonzero;stroke:none"
             id="path46" /></g><g
           id="g48"
           transform="translate(265.7793,200.1045)"><path
             d="m 0,0 c 0,9.188 -9.868,10.424 -9.868,17.042 0,2.284 0.912,3.153 2.515,3.153 1.607,0 2.534,-0.869 2.534,-3.153 l 0,-1.568 4.765,0 0,1.239 c 0,5.133 -2.528,8.085 -7.441,8.085 -4.898,0 -7.423,-2.952 -7.423,-8.085 0,-9.193 9.864,-10.43 9.864,-17.039 0,-2.293 -1.003,-3.119 -2.616,-3.119 -1.606,0 -2.615,0.826 -2.615,3.119 l 0,2.529 -4.775,0 0,-2.203 c 0,-5.143 2.569,-8.088 7.527,-8.088 C -2.582,-8.088 0,-5.143 0,0"
             style="fill:#231f20;fill-opacity:1;fill-rule:nonzero;stroke:none"
             id="path50" /></g><g
           id="g52"
           transform="translate(70.2734,219.9536)"><path
             d="m 0,0 c 1.797,0 2.57,-1.035 2.57,-3.319 l 0,-3.177 c 0,-2.572 -1.152,-3.396 -3.019,-3.396 l -1.981,0 L -2.43,0 0,0 z m -7.486,4.572 0,-32.144 2.53,1.461 2.526,-1.461 0,13.09 1.738,0 c 2.3,0 3.305,-1.111 3.305,-4.092 l 0,-5.049 c 0,-2.615 0.174,-3.109 0.458,-3.949 l 5.151,0 c -0.51,1.201 -0.564,2.348 -0.564,3.91 l 0,4.95 c 0,3.351 -0.816,5.791 -3.347,6.847 2.255,1.057 3.304,3.21 3.304,6.521 l 0,2.536 c 0,4.947 -2.255,7.38 -7.471,7.38 l -7.63,0 z"
             style="fill:#231f20;fill-opacity:1;fill-rule:nonzero;stroke:none"
             id="path54" /></g><g
           id="g56"
           transform="translate(103.0352,224.5259)"><path
             d="m 0,0 0,-32.144 2.526,1.461 2.531,-1.461 L 5.057,0 0,0 z"
             style="fill:#231f20;fill-opacity:1;fill-rule:nonzero;stroke:none"
             id="path58" /></g><g
           id="g60"
           transform="translate(113.2827,224.5259)"><path
             d="m 0,0 0,-32.144 2.514,1.461 2.03,-1.166 0,22.992 6.282,-23.287 5.181,0 0,32.144 -4.499,0 0,-19.238 L 6.327,0 0,0 z"
             style="fill:#231f20;fill-opacity:1;fill-rule:nonzero;stroke:none"
             id="path62" /></g><g
           id="g64"
           transform="translate(192.3457,219.9536)"><path
             d="m 0,0 c 1.597,0 2.472,-0.745 2.472,-3.055 l 0,-4.807 c 0,-2.304 -0.875,-3.036 -2.472,-3.036 l -2.387,0 L -2.387,0 0,0 z m -7.443,4.572 0,-32.144 2.542,1.461 2.514,-1.461 0,12.078 2.387,0 c 5.054,0 7.521,2.805 7.521,7.946 l 0,4.182 C 7.521,1.774 5.054,4.572 0,4.572 l -7.443,0 z"
             style="fill:#231f20;fill-opacity:1;fill-rule:nonzero;stroke:none"
             id="path66" /></g><g
           id="g68"
           transform="translate(246.2725,224.5259)"><path
             d="m 0,0 -5.04,0 0,-32.144 2.519,1.461 L 0,-32.144 0,0 z"
             style="fill:#231f20;fill-opacity:1;fill-rule:nonzero;stroke:none"
             id="path70" /></g><g
           id="g72"
           transform="translate(272.748,193.8428)"><path
             d="m 0,0 2.535,-1.449 0,32.132 -5.056,0 0,-32.144 L 0,0 z"
             style="fill:#231f20;fill-opacity:1;fill-rule:nonzero;stroke:none"
             id="path74" /></g><g
           id="g76"
           transform="translate(285.5547,210.0615)"><path
             d="m 0,0 0,9.892 2.432,0 c 1.785,0 2.565,-1.035 2.565,-3.319 l 0,-3.177 C 4.997,0.824 3.848,0 1.973,0 L 0,0 z M -2.528,-16.219 0,-17.68 l 0,13.09 1.745,0 c 2.297,0 3.304,-1.111 3.304,-4.092 l 0,-5.048 c 0,-2.616 0.175,-3.11 0.459,-3.95 l 5.138,0 c -0.509,1.201 -0.547,2.348 -0.547,3.91 l 0,4.95 c 0,3.351 -0.822,5.791 -3.357,6.847 2.256,1.057 3.305,3.21 3.305,6.521 l 0,2.536 c 0,4.947 -2.251,7.38 -7.48,7.38 l -7.61,0 0,-32.144 2.515,1.461 z"
             style="fill:#231f20;fill-opacity:1;fill-rule:nonzero;stroke:none"
             id="path78" /></g></g></g></g></svg>